<svg width="252" height="210" viewBox="0 0 252 210" fill="none" xmlns="http://www.w3.org/2000/svg">
<path fill-rule="evenodd" clip-rule="evenodd" d="M157.097 31.4172C153.715 33.5157 149.099 37.2651 147.172 39.4787C146.492 40.2596 146.168 40.7095 146.451 40.4786C146.735 40.2477 147.124 39.9439 147.316 39.8031C147.509 39.6627 147.603 39.5323 147.526 39.5137C147.341 39.4688 149.011 37.8215 150.243 36.8351C150.782 36.4034 151.31 36.1395 151.417 36.2485C151.524 36.3576 151.588 36.2632 151.56 36.0386C151.511 35.655 156.03 32.1728 158.259 30.8765L159.173 30.3445L161.533 31.6134C164.785 33.3629 171.056 37.8984 172.077 39.2396C172.529 39.8337 165.572 50.0965 161.487 54.8605L159.651 57.0021L158.05 56.5331C157.17 56.275 155.139 55.9505 153.537 55.812C151.935 55.6734 150.212 55.517 149.708 55.4643C149.204 55.4118 148.366 55.3791 147.846 55.3918C145.632 55.446 141.496 53.8861 138.619 51.9125C136.718 50.6079 133.631 49.2475 130.222 48.2123C127.118 47.2699 124.156 47.0952 122.436 47.7534C121.849 47.9777 121.317 48.1485 121.253 48.1329C121.188 48.1173 120.328 48.5738 119.341 49.147C118.354 49.7206 116.937 50.4616 116.192 50.7935C114.495 51.5503 110.367 52.7658 109.457 52.7768L108.773 52.7849L109.412 51.9949C109.763 51.5605 110.099 51.2513 110.159 51.3083C110.271 51.4139 111.1 48.9762 111.273 48.0347C112.881 39.2582 113.704 36.5527 116.216 31.7883C117.838 28.7125 118.738 27.3878 119.14 27.4849C119.295 27.5224 119.373 27.3996 119.313 27.2123C119.25 27.0172 119.297 26.9677 119.423 27.0966C119.544 27.2202 120.357 27.1276 121.229 26.891C123.85 26.1802 128.376 25.4292 131.577 25.1744C133.234 25.0423 134.615 24.9761 134.645 25.0277C134.733 25.1796 134.219 31.6156 133.924 34.0502C133.774 35.2863 133.295 38.2411 132.858 40.6162C132.344 43.4117 132.12 45.3018 132.225 45.9756C132.684 48.9294 135.943 50.3446 138.79 48.8263C139.356 48.5241 139.891 48.3834 139.978 48.5133C140.065 48.6433 140.093 48.5944 140.039 48.4044C139.984 48.2148 140.076 48.0142 140.241 47.9587C140.774 47.7809 143.052 44.9637 142.727 44.8851C142.679 44.8737 142.179 45.4572 141.616 46.1816C140.555 47.5469 138.836 48.8435 138.268 48.7063C137.608 48.5468 137.436 46.4059 137.786 42.6946C138.256 37.6936 138.311 34.7888 138.043 29.0586C137.917 26.3495 136.875 24.5448 135.245 24.2094C134.091 23.9721 129.094 24.4317 126.015 25.0583C124.707 25.3245 123.653 25.4627 123.675 25.3652C123.696 25.2678 123.599 25.2936 123.459 25.4229C123.32 25.5519 122.257 25.8992 121.098 26.195C119.269 26.6613 118.891 26.866 118.243 27.7414C117.555 28.6712 116.366 30.6458 115.83 31.7501C114.287 34.9317 113.749 36.2087 113.042 38.3711C112.585 39.7696 112.128 41.3838 112.028 41.9582C110.845 48.724 110.702 49.3138 109.918 50.6944C108.929 52.4359 108.31 53.0291 107.31 53.1907C106.557 53.3124 106.475 53.2338 105.414 51.3673C102.381 46.032 97.7012 41.3723 94.6152 40.615C94.1031 40.4893 90.7289 43.3226 88.0301 46.1439C87.3686 46.8353 86.7347 47.3062 86.6212 47.19C86.5057 47.0721 86.4648 47.1348 86.5285 47.3326C86.5908 47.5269 86.4952 47.7983 86.3159 47.9357C86.1369 48.0728 84.9595 49.4056 83.6997 50.8973C81.1368 53.9322 80.9371 54.4116 81.0246 57.3231C81.0561 58.3699 81.0045 59.3039 80.9102 59.3984C80.8157 59.4929 80.8483 59.5968 80.9823 59.6292C81.1964 59.6809 81.5111 61.4096 81.3185 61.4744C81.2776 61.4882 80.5423 61.6523 79.6847 61.8394C75.4085 62.7718 70.4227 66.8811 68.7758 70.8307C68.514 71.4584 67.5013 74.1794 67.4219 74.4682C67.3808 74.6183 66.6227 73.5374 65.7374 72.0663C63.9766 69.1403 62.2469 67.4803 59.3596 65.9454C57.0765 64.7317 51.5347 63.6526 48.0708 63.7472C42.9112 63.8882 39.2166 64.8711 33.424 67.6433C23.9981 72.1538 23.7508 72.3113 23.5768 73.9066C23.4874 74.7256 25.0857 78.3433 25.4795 78.2129C25.5767 78.1806 26.2437 78.2244 26.9614 78.3105C32.1965 78.9383 41.5473 81.1801 45.7467 82.8144C46.4218 83.0771 47.2307 83.3904 47.5444 83.5105C47.8581 83.6304 48.1879 83.854 48.2771 84.0073C48.5803 84.5285 47.1885 87.7644 45.8927 89.5508C44.2343 91.8377 43.0613 92.9509 40.7454 94.4364C37.9334 96.2399 37.9886 96.2314 27.6806 96.4535C25.1564 96.5079 21.6983 96.565 19.9959 96.5804C18.2935 96.596 16.5459 96.6595 16.1123 96.7216C15.6785 96.7838 15.2452 96.7543 15.1492 96.656C14.8428 96.3425 14.4625 97.193 14.2856 98.5873C13.9895 100.921 14.0416 101.187 15.1447 102.972C16.4491 105.081 17.5324 105.983 25.9471 111.965C27.7752 113.264 29.5477 114.24 31.4793 115.011C32.1316 115.271 32.8984 115.599 33.1831 115.74C33.4683 115.88 35.3571 116.396 37.3805 116.886C40.8107 117.715 41.7318 117.824 46.259 117.931C48.0254 117.973 52.1293 117.077 54.325 116.17C55.5341 115.671 56.5902 115.361 56.672 115.482C56.7538 115.602 56.7802 115.558 56.7307 115.382C56.6195 114.988 58.6423 113.738 58.8456 114.076C58.9264 114.211 58.9834 114.196 58.9721 114.044C58.9418 113.635 60.7782 112.425 61.0334 112.686C61.1536 112.809 61.2059 112.767 61.15 112.593C61.032 112.225 63.2623 111.042 63.4313 111.383C63.4934 111.508 63.7372 112.943 63.9733 114.572C64.2096 116.2 64.4789 117.668 64.5718 117.832C64.6649 117.997 64.7033 118.288 64.657 118.48C64.6107 118.672 64.9329 119.847 65.373 121.092C66.211 123.463 66.1997 123.593 65.0287 125.113C63.9919 126.458 61.9787 130.52 61.9 131.425C61.8484 132.016 61.748 132.22 61.588 132.056C61.4452 131.91 61.3961 131.951 61.4632 132.16C61.5241 132.35 61.6709 132.473 61.7895 132.434C61.9081 132.394 62.2527 133.486 62.5554 134.859C63.4634 138.98 65.7315 146.146 66.7774 148.199C66.9149 148.469 66.9581 148.733 66.8731 148.785C66.3801 149.091 70.4594 149.235 71.5852 148.951C73.8433 148.383 77.4429 146.704 80.6012 144.747C82.2516 143.724 83.6822 142.929 83.7805 142.981C83.8786 143.033 83.9547 142.983 83.9494 142.869C83.9438 142.756 84.2293 142.392 84.5839 142.061C85.1817 141.503 85.2535 141.498 85.578 141.981C86.2831 143.03 86.4538 145.328 85.9685 147.235C84.0289 154.858 82.3015 161.181 82.1048 161.378C81.9593 161.523 82.0342 161.591 82.3001 161.556C82.6274 161.512 82.6883 161.674 82.554 162.232C82.4038 162.856 82.3691 164.966 82.4377 169.323C82.4517 170.2 83.1016 172.318 83.3159 172.185C83.3746 172.149 84.5517 173.041 85.9313 174.168C88.1072 175.947 92.1668 178.663 94.2369 179.727C94.5974 179.912 94.8277 180.128 94.7491 180.207C94.6704 180.286 95.1533 180.471 95.8223 180.619C98.0446 181.11 99.3751 180.15 101.387 176.605C101.961 175.595 102.512 174.852 102.612 174.954C102.712 175.056 102.771 174.961 102.744 174.742C102.716 174.523 103.14 173.486 103.685 172.438C104.981 169.947 106.827 165.875 107.761 163.446C108.531 161.445 109.495 160.07 110.529 159.499C111.1 159.184 111.147 159.212 111.682 160.186C112.276 161.268 112.429 161.897 112.96 165.458C113.145 166.7 113.447 168.304 113.63 169.022C114.339 171.793 114.816 173.39 114.943 173.42C115.015 173.438 114.91 172.892 114.708 172.207C113.806 169.147 112.448 161.771 112.614 160.836C112.657 160.595 112.602 160.428 112.493 160.465C112.384 160.501 111.915 159.92 111.453 159.173C110.99 158.426 110.498 157.782 110.36 157.74C110.223 157.699 109.712 157.472 109.224 157.235C108.656 156.958 107.965 156.836 107.293 156.894C106.717 156.943 106.246 156.933 106.245 156.872C106.245 156.81 105.852 157.052 105.373 157.41C103.877 158.525 103.292 159.6 102.126 163.374C100.299 169.288 96.7657 178.317 95.9648 179.119C95.4851 179.599 87.3131 174.631 86.9884 173.661C86.9227 173.465 86.8467 173.39 86.8193 173.493C86.7538 173.742 84.2118 171.772 84.0838 171.373C84.0295 171.203 83.9096 171.057 83.8176 171.048C83.2783 170.992 83.1421 170.871 83.3657 170.647C83.5221 170.491 83.4903 170.437 83.2826 170.507C82.9294 170.625 82.816 170.154 82.7217 168.182C82.6917 167.554 82.7915 166.917 82.9435 166.765C83.1111 166.597 83.1012 166.528 82.9178 166.589C82.5791 166.702 82.574 166.239 82.8673 161.997C83.037 159.539 83.2843 158.272 84.3637 154.331C86.8165 145.374 86.8142 145.384 86.4997 143.962C86.1515 142.388 85.2135 140.641 84.36 139.975C82.9722 138.893 80.9875 138.914 79.7136 140.025C76.1679 143.117 74.4198 144.389 74.1885 144.044C74.1005 143.913 74.0666 143.942 74.1132 144.109C74.2771 144.694 67.597 148.544 67.353 148.005C65.9843 144.989 64.0736 139.016 63.0482 134.549C62.2681 131.15 62.2565 130.97 62.7524 129.851C63.5722 128.001 65.2323 125.219 65.4089 125.4C65.4976 125.49 65.5997 125.42 65.636 125.243C65.9474 123.719 66.2469 123.755 67.3651 125.453C68.5119 127.195 69.887 128.234 71.599 128.652C73.2332 129.052 76.7236 129.09 78.6378 128.729L79.9827 128.476L81.2462 129.48C82.5443 130.511 83.1089 130.786 85.8949 131.745C87.7897 132.397 91.5269 132.839 93.8718 132.69C95.681 132.575 99.8265 131.732 102.698 130.896L104.522 130.365L105.566 131.252C106.951 132.431 108.951 133.317 112.12 134.156C114.503 134.788 114.68 134.872 114.167 135.131C113.147 135.646 111.233 137.261 110.152 138.519C109.225 139.598 109.019 140.042 108.561 141.944C108 144.272 108.141 146.457 108.928 147.629C109.133 147.933 109.199 148.283 109.077 148.406C108.948 148.535 108.997 148.582 109.19 148.517C109.376 148.455 109.499 148.525 109.463 148.672C109.335 149.203 111.023 150.375 112.108 150.507C113.332 150.657 113.426 150.681 114.384 151.092C114.785 151.265 116.069 151.704 117.236 152.069C124.169 154.235 125.85 155.072 125.418 156.144C125.378 156.242 125.532 156.296 125.759 156.266C125.986 156.235 126.147 156.315 126.116 156.443C125.982 157 129.557 158.713 132.192 159.353L133.648 159.707L134.126 162.068C134.941 166.089 135.314 168.195 135.434 169.443C135.497 170.103 135.641 171.339 135.754 172.19C135.867 173.04 136.101 175.596 136.273 177.869C136.509 180.977 136.497 182.07 136.224 182.276C135.592 182.754 129.434 184.064 129.156 183.779C129 183.619 128.932 183.633 128.99 183.813C129.096 184.141 126.539 184.531 122.805 184.757L120.527 184.895L119.662 183.501C118.702 181.954 116.319 176.999 116.39 176.696C116.415 176.589 116.285 176.251 116.101 175.943C115.917 175.635 115.585 174.973 115.363 174.472L114.96 173.561L115.205 174.571C115.339 175.128 115.546 175.729 115.665 175.907C115.784 176.086 116.252 177.118 116.707 178.201C117.594 180.316 120.535 185.542 121.155 186.107C122.294 187.145 137.342 184.622 138.912 183.131C139.823 182.266 139.975 180.598 139.842 172.902C139.805 170.721 139.678 167.996 139.561 166.847C139.444 165.698 139.394 164.505 139.45 164.196C139.506 163.888 139.483 163.658 139.399 163.686C139.314 163.715 139.166 163.006 139.069 162.113L138.893 160.487L140.557 160.703C141.472 160.822 144.516 161.55 147.321 162.321C152.436 163.727 152.669 163.826 154.969 165.576C155.362 165.875 155.873 166.166 156.104 166.221C156.358 166.283 156.425 166.424 156.272 166.576C156.121 166.728 156.148 166.786 156.339 166.723C156.514 166.664 157.265 167.007 158.009 167.485C159.369 168.359 162.21 169.862 162.775 170.006C162.942 170.049 163.558 169.648 164.144 169.116C164.73 168.584 165.406 168.187 165.646 168.233C165.907 168.283 165.969 168.235 165.801 168.113C165.609 167.975 165.942 167.515 166.837 166.684C169.186 164.502 171.846 161.671 174.11 158.944C176.984 155.481 177.03 155.944 173.134 149.137C171.42 146.143 170.461 144.604 169.582 143.44C169.125 142.835 169.13 142.771 169.701 141.985C170.029 141.533 170.861 139.964 171.55 138.497C172.239 137.031 172.83 135.809 172.863 135.78C172.921 135.731 173.563 136.236 176.05 138.287C176.678 138.805 177.647 140.017 178.202 140.981C180.096 144.265 181.036 145.352 184.388 148.13C187.322 150.562 190.002 151.913 193.724 152.839C197.643 153.813 200.16 153.93 203.02 153.269C204.271 152.98 205.445 152.67 205.628 152.582C205.811 152.492 206.043 152.53 206.145 152.666C206.246 152.801 206.272 152.79 206.202 152.641C206.132 152.492 206.982 151.977 208.09 151.497C209.907 150.708 210.923 150.208 213.338 148.912C213.762 148.684 215.055 148.061 216.211 147.526C217.368 146.992 218.613 146.383 218.979 146.172C219.344 145.961 220.597 145.284 221.762 144.667C226.057 142.395 227.357 141.632 228.796 140.538C230.209 139.464 230.281 139.356 230.6 137.845C231.035 135.785 231.113 134.855 230.885 134.476C230.765 134.277 229.102 134.122 226.181 134.038C223.696 133.967 221.367 133.88 221.007 133.845C220.646 133.81 217.905 133.709 214.914 133.622C209.823 133.473 209.285 133.408 206.433 132.599C202.888 131.594 200.859 130.447 199.134 128.471C197.759 126.896 196.539 124.188 196.201 121.96C196.136 121.532 195.972 121.156 195.836 121.123C195.475 121.036 196.387 124.144 197.297 126.102C198.693 129.105 200.882 131.081 204.593 132.686C207.361 133.884 209.273 134.194 215.489 134.453C217.463 134.535 220.389 134.68 221.991 134.775C223.592 134.87 225.824 134.978 226.949 135.016C228.843 135.079 229.036 135.128 229.543 135.674C229.844 135.999 230.062 136.381 230.028 136.524C229.989 136.684 229.861 136.641 229.692 136.413C229.438 136.067 226.241 135.749 222.309 135.68C220.634 135.651 210.664 134.74 208.601 134.429C205.263 133.924 201.452 132.011 198.906 129.562C197.329 128.044 196.174 125.855 195.269 122.668C194.017 118.257 193.998 114.315 195.215 111.394C195.772 110.055 195.774 109.992 195.26 110.129C194.905 110.223 194.729 110.45 194.751 110.783C194.77 111.063 194.499 111.981 194.149 112.821C193.667 113.978 193.531 114.63 193.59 115.502C193.857 119.452 193.98 120.583 194.227 121.374C194.38 121.861 194.409 122.356 194.291 122.474C194.163 122.602 194.233 122.635 194.465 122.558C194.755 122.461 194.777 122.539 194.551 122.869C194.386 123.111 194.353 123.245 194.477 123.168C194.684 123.04 195.306 125.048 195.595 126.78C195.661 127.17 196.269 128.167 196.947 128.996C197.626 129.826 198.156 130.604 198.127 130.726C198.097 130.848 198.205 130.904 198.365 130.85C198.526 130.797 198.631 130.861 198.599 130.994C198.517 131.334 199.435 131.958 202.175 133.425C206.218 135.589 211.21 136.447 220.482 136.574C224.716 136.631 225.487 136.737 225.886 137.312C226.203 137.768 226.192 137.839 225.793 137.953C225.546 138.024 225.135 137.955 224.88 137.799C224.527 137.584 224.388 137.635 224.296 138.015C224.216 138.345 223.626 138.692 222.55 139.04C221.656 139.33 220.759 139.649 220.558 139.75C219.768 140.147 216.624 141.301 216.096 141.388C215.788 141.439 215.399 141.422 215.232 141.352C215.064 141.281 214.888 141.372 214.84 141.554C214.792 141.736 214.098 142.136 213.298 142.441C212.234 142.848 211.704 142.913 211.326 142.682C210.917 142.432 210.821 142.458 210.865 142.809C210.901 143.09 210.631 143.388 210.132 143.62C209.181 144.063 209.284 144.476 210.248 144.09C210.622 143.941 211.101 143.869 211.312 143.93C211.649 144.029 211.644 144.052 211.272 144.125C211.039 144.17 210.249 144.399 209.516 144.633C207.99 145.12 205.529 145.413 203.593 145.34C201.728 145.269 197.359 144.205 197.015 143.738C196.857 143.523 196.431 143.364 196.027 143.368C195.094 143.38 193.228 142.327 192.541 141.401C192.241 140.996 192.028 140.629 192.067 140.584C192.107 140.54 192.094 140.515 192.038 140.529C191.983 140.544 191.114 139.641 190.106 138.523C188.347 136.569 186.233 133.095 184.828 129.843C182.546 124.563 181.308 117.625 181.438 110.841C181.504 107.435 182.564 103.496 183.88 101.77C184.82 100.538 186.293 99.4261 186.587 99.7269C186.686 99.8284 186.75 99.7474 186.729 99.5476C186.694 99.2143 188.486 98.3944 190.131 97.9915C190.489 97.9038 190.739 97.6997 190.687 97.5383C190.583 97.2132 187.888 97.9077 186.408 98.6407C183.57 100.047 181.813 102.416 180.974 105.967C180.252 109.016 180.098 110.338 180.337 111.404C180.445 111.888 180.444 112.414 180.335 112.574C180.226 112.733 180.188 113.38 180.25 114.011C180.312 114.642 180.292 115.202 180.207 115.255C180.121 115.308 180.174 115.878 180.324 116.521C180.474 117.165 180.556 117.86 180.507 118.066C180.457 118.273 180.562 119.086 180.741 119.874C180.92 120.663 181.023 121.486 180.97 121.705C180.917 121.923 180.973 122.203 181.093 122.326C181.213 122.449 181.202 122.668 181.067 122.812C180.932 122.956 180.938 123.009 181.081 122.93C181.403 122.751 182.231 125.653 182.072 126.408C182.004 126.734 182.096 126.944 182.294 126.917C182.481 126.892 182.881 127.584 183.183 128.454C183.486 129.324 183.989 130.494 184.303 131.054C184.616 131.613 184.888 132.307 184.907 132.597C184.926 132.887 185.612 133.962 186.43 134.988C187.249 136.013 188.127 137.149 188.382 137.512C188.637 137.875 189.463 138.834 190.217 139.643C190.972 140.453 191.579 141.156 191.566 141.206C191.505 141.462 187.868 138.348 186.667 137.011C185.098 135.264 182.559 131.138 181.718 128.969C180.495 125.813 179.903 123.92 180.005 123.489C180.063 123.241 179.989 123.009 179.839 122.973C179.461 122.881 178.299 116.937 178.601 116.635C178.736 116.5 178.721 116.432 178.568 116.483C178.314 116.568 178.255 115.934 178.135 111.812C178.085 110.102 178.062 110.277 178.83 106.489C179.521 103.08 180.15 101.591 181.162 100.963C181.5 100.754 181.822 100.393 181.878 100.162C181.934 99.9307 182.871 99.2042 183.961 98.5471C185.791 97.4436 187.313 96.9578 191.293 96.2071C193.434 95.8033 199.066 96.9683 203.059 98.6408C206.967 100.278 209.13 101.25 211.659 102.506C218.906 106.105 220.54 107.085 219.926 107.465C219.797 107.545 219.858 107.61 220.061 107.609C220.264 107.609 220.446 107.745 220.465 107.912C220.487 108.1 219.623 108.137 218.193 108.009C216.923 107.895 215.565 107.877 215.173 107.97C214.767 108.065 214.264 108.002 214 107.822C213.452 107.446 212.081 107.221 206.519 106.593C202.175 106.102 200.416 106.21 199.243 107.04C198.754 107.386 198.653 107.397 198.839 107.086C199.001 106.816 198.954 106.637 198.707 106.577C198.404 106.504 198.356 106.605 198.472 107.062C198.583 107.5 198.47 107.813 198.005 108.355C196.491 110.12 195.788 111.57 195.35 113.837C195.114 115.058 194.972 116.142 195.034 116.245C195.096 116.349 195.388 116.218 195.682 115.956C196.406 115.31 198.02 114.784 200.023 114.543C202.63 114.228 207.329 113.798 207.882 113.822C208.159 113.835 208.513 113.802 208.67 113.75C209.072 113.615 212.721 113.39 216.716 113.254C218.297 113.2 218.806 112.966 219.294 112.065C219.576 111.546 220.157 110.647 220.585 110.069L221.364 109.017L221 107.782C220.569 106.326 220.61 106.355 214.708 103.227C204.974 98.0663 197.16 95.2677 192.628 95.3179C188.176 95.3671 185.601 96.1477 181.942 98.5576C179.971 99.8552 179.812 99.9136 179.953 99.2856C180.201 98.1834 179.924 94.993 179.369 92.5505C179.086 91.3035 178.968 90.2224 179.108 90.1487C179.247 90.0749 180.38 89.5512 181.625 88.9849C183.653 88.0619 194.703 81.3905 194.346 81.3043C194.266 81.285 194.441 81.055 194.734 80.793C195.027 80.5313 195.313 80.1253 195.37 79.8911C195.741 78.3556 192.036 65.2765 190.393 62.3201C189.847 61.3378 189.403 61.2399 186.017 61.3559C184.975 61.3914 184.124 61.4127 184.126 61.4027C184.134 61.3706 183.336 61.466 181.775 61.6841C180.934 61.8015 179.775 61.9558 179.2 62.0267C177.662 62.2164 173.333 63.277 171.115 64.0072L169.183 64.6433L167.593 63.2929C165.929 61.8805 164.326 59.9575 164.449 59.5219C164.488 59.3817 165.12 58.3997 165.854 57.3393C169.443 52.1513 173.356 45.2905 174.562 42.0727C175.251 40.2317 174.88 39.4549 172.248 37.2331C171.049 36.2202 169.123 34.7363 167.968 33.9354C165.81 32.4378 161.243 29.7656 160.559 29.6004C160.348 29.5494 158.79 30.3668 157.097 31.4172ZM160.227 30.2658C160.407 30.5624 163.436 32.3364 163.992 32.4707C164.131 32.5044 164.287 32.61 164.338 32.7056C164.389 32.8009 165.108 33.3257 165.936 33.8714C166.764 34.4171 168.573 35.7851 169.956 36.9117C171.883 38.4812 172.548 38.9002 172.805 38.7062C173.055 38.5168 172.752 38.1307 171.607 37.1806C170.694 36.4221 169.924 35.9586 169.702 36.0328C169.471 36.1099 169.417 36.0695 169.559 35.9272C169.84 35.6455 166.921 33.494 166.36 33.5696C166.144 33.5987 166.051 33.5394 166.152 33.4379C166.254 33.3367 165.394 32.6909 164.243 32.0031C161.932 30.623 159.914 29.7499 160.227 30.2658ZM144.353 42.6016C143.621 43.4973 142.999 44.3575 142.971 44.5128C142.942 44.6684 143.47 44.1325 144.144 43.3219C145.572 41.6054 145.974 41.0436 145.805 41.0027C145.738 40.9864 145.084 41.7059 144.353 42.6016ZM188.445 62.2309C188.536 62.5104 188.716 62.704 188.844 62.661C188.973 62.618 189.024 62.807 188.957 63.0811C188.769 63.8617 189.327 64.4596 189.958 64.1537C190.258 64.0087 190.366 64.0139 190.218 64.1667C190.074 64.3143 190.131 64.5915 190.349 64.8021C190.561 65.0076 190.613 65.1504 190.466 65.1194C190.318 65.088 190.094 64.8908 189.967 64.6806C189.789 64.3835 189.721 64.3671 189.663 64.607C189.622 64.7767 189.708 64.9444 189.853 64.9796C189.999 65.0148 190.051 65.1804 189.968 65.3474C189.885 65.5146 189.921 65.7174 190.048 65.7982C190.176 65.879 190.383 66.0852 190.509 66.2566C190.659 66.4615 190.819 66.4487 190.976 66.2191C191.262 65.8007 190.945 65.4072 190.441 65.5538C190.162 65.6347 190.166 65.6005 190.458 65.4028C190.753 65.2036 190.71 64.8096 190.261 63.6145C189.805 62.4005 189.538 62.0442 188.982 61.9021C188.379 61.7484 188.303 61.7954 188.445 62.2309ZM187.009 61.6953C186.859 61.7071 185.759 61.758 184.565 61.8084C181.605 61.9337 176.63 62.6882 174.975 63.2636C174.588 63.3979 174.101 63.4928 173.893 63.4742C173.686 63.4555 173.287 63.5536 173.008 63.6919C172.729 63.8302 172.01 64.0638 171.41 64.2108C169.686 64.6327 169.58 64.8317 170.503 65.9182C171.292 66.8465 173.35 71.3174 173.471 72.3658C173.504 72.6449 173.653 73.2091 173.802 73.6194C174.549 75.6686 176.21 80.6376 177.068 83.3887C177.598 85.0882 178.051 86.5282 178.076 86.5886C178.142 86.753 179.943 86.1031 180.833 85.5936C181.261 85.348 181.894 85.0361 182.239 84.9003C183.823 84.276 186.31 82.7945 186.224 82.5261C186.171 82.3615 186.235 82.3371 186.366 82.4712C186.501 82.6094 187.982 81.8913 189.797 80.8087L192.989 78.9028L192.246 75.6101C191.838 73.7992 191.437 72.2403 191.356 72.146C191.276 72.0516 191.15 71.562 191.078 71.0582C191.005 70.5544 190.839 70.116 190.708 70.0845C190.577 70.0528 190.546 69.9504 190.64 69.8571C190.894 69.6029 188.041 61.9644 187.634 61.8084C187.441 61.7345 187.16 61.6837 187.009 61.6953ZM189.33 62.9545C189.243 63.2236 189.247 63.5197 189.337 63.6124C189.428 63.705 189.54 63.5533 189.586 63.2752C189.702 62.5798 189.523 62.3555 189.33 62.9545ZM125.363 48.4051C124.038 48.5561 120.902 49.801 119.838 50.5979C119.357 50.9584 117.845 51.8235 116.478 52.5202C115.11 53.2169 113.895 53.8828 113.776 53.9997C113.658 54.1169 113.459 54.1871 113.336 54.1558C113.212 54.1246 112.083 54.6678 110.826 55.3629C108.27 56.7766 107.821 56.9563 107.547 56.6758C107.442 56.5689 105.782 56.2113 103.857 55.8815C99.6662 55.1634 98.731 55.3048 95.9192 57.0831C92.4946 59.2491 91.0296 60.0971 87.7478 61.8135C85.8901 62.7852 83.0857 63.6751 82.4016 63.5098C82.1618 63.4519 81.5894 63.4986 81.1297 63.614C80.3902 63.7991 80.3216 63.7831 80.5331 63.4734C80.7015 63.2267 80.3803 63.2353 79.4431 63.5031C78.6885 63.7186 78.1581 64.0185 78.2154 64.1973C78.2755 64.3843 78.2143 64.4074 78.0644 64.2541C77.7276 63.9096 73.8517 66.2172 73.154 67.1777C72.3515 68.2827 70.8825 72.3599 69.8792 76.2678C68.8762 80.1735 67.8798 83.1248 67.4509 83.4604C67.2923 83.5846 66.4251 86.6202 65.5243 90.2064C63.6703 97.5851 63.5744 98.6303 64.3524 102.942C64.5947 104.284 64.8402 106.066 64.8981 106.903C64.9561 107.741 65.1705 109.139 65.3749 110.012C65.5793 110.885 65.7793 112.341 65.8196 113.249C65.8597 114.157 65.9878 115.106 66.1043 115.359C66.2208 115.611 66.2771 116.325 66.2292 116.946C66.1817 117.566 66.2822 118.386 66.4525 118.769C66.623 119.151 66.7799 119.741 66.8014 120.08C66.8605 121.023 67.7693 123.988 68.2385 124.769C68.4685 125.152 69.1369 125.773 69.7242 126.149C72.18 127.721 74.6322 127.548 76.2043 125.691C77.3876 124.293 78.031 123.174 77.7919 122.93C77.6838 122.819 77.655 122.475 77.7278 122.165C77.8006 121.855 77.8079 121.043 77.7436 120.361C77.6794 119.68 77.7341 118.921 77.8649 118.675C78.0967 118.241 78.0587 116.265 77.7949 115.009C77.7233 114.667 77.7608 113.881 77.8785 113.26C77.9964 112.64 78.0177 111.679 77.9264 111.126C77.8349 110.572 77.9433 109.107 78.1673 107.871C78.4758 106.169 78.4925 105.367 78.2362 104.568C77.9309 103.617 77.9394 103.541 78.3208 103.798C78.7249 104.069 78.7296 104.054 78.4239 103.461C78.0744 102.782 78.1466 102.063 78.5786 101.919C79.0414 101.764 80.5442 94.2416 80.3088 93.2573C80.1979 92.7938 80.1894 92.3636 80.2895 92.3013C80.5495 92.1401 81.0352 86.3618 80.8876 85.1865C80.7173 83.8293 81.2041 80.9696 81.614 80.9195C81.8516 80.8906 81.876 80.78 81.7098 80.4838C81.5373 80.1763 81.5968 80.0192 81.9746 79.785C82.564 79.4196 83.2645 80.0014 82.9888 80.6279C82.6494 81.3993 83.2851 81.1278 83.6531 80.344L84.0263 79.5498L84.3863 80.3016C84.5843 80.7149 84.6418 81.2494 84.5141 81.489C84.3863 81.7286 84.3853 81.9496 84.5119 81.9802C84.6383 82.0107 84.7698 81.9201 84.804 81.7786C84.8381 81.6372 84.9699 81.5466 85.0967 81.5773C85.2236 81.6079 85.1707 82.2382 84.9794 82.9776C83.9339 87.0181 82.1151 97.3316 82.3297 98.0006C82.3877 98.1809 82.197 99.5311 81.9061 101.001C80.9035 106.069 80.7046 107.828 81.0473 108.597C81.2495 109.051 81.2703 109.743 81.1024 110.438C80.9544 111.05 80.8735 112.085 80.9225 112.738C80.9976 113.744 80.9084 115.929 80.7542 116.857C80.7305 117.001 80.755 117.253 80.8089 117.417C80.8628 117.581 80.7201 118.418 80.4915 119.278C80.2631 120.137 80.1651 121.031 80.2735 121.264C80.382 121.497 80.4595 122.077 80.4457 122.553C80.4126 123.684 80.9166 124.768 81.7676 125.394C82.1438 125.672 82.4705 126.104 82.4932 126.355C82.5624 127.118 84.2765 129.088 85.473 129.781C86.3719 130.3 87.1025 130.497 89.0804 130.749C92.1185 131.138 93.8027 131.048 95.8878 130.385C97.2143 129.964 97.6945 129.632 98.6969 128.447C99.7599 127.189 99.9612 126.777 100.362 125.041C100.613 123.955 100.817 122.589 100.816 122.007C100.814 121.425 100.903 120.16 101.013 119.197C101.123 118.235 101.193 116.707 101.168 115.803C101.117 113.988 101.146 113.428 101.384 111.542C101.473 110.838 101.498 110.048 101.44 109.786C101.381 109.525 101.607 108.52 101.941 107.553C102.276 106.587 102.502 105.584 102.444 105.325C102.386 105.066 102.449 104.463 102.584 103.985C102.718 103.506 102.705 102.764 102.555 102.336C102.405 101.907 102.345 101.409 102.422 101.228C102.498 101.048 102.497 100.517 102.421 100.05C102.292 99.2733 102.66 97.5103 103.501 94.868C103.678 94.3121 103.762 93.5978 103.689 93.2807C103.377 91.9373 103.638 89.2357 104.153 88.4637C104.348 88.1713 104.479 87.2804 104.472 86.2866C104.466 85.3612 104.536 84.5575 104.628 84.5005C104.72 84.4433 105.357 84.4926 106.043 84.6102C107.674 84.8891 107.963 85.521 107.367 87.5023C107.136 88.2696 106.791 90.3294 106.601 92.0794C106.398 93.9428 105.863 96.8015 105.309 98.9788C104.55 101.969 104.396 102.943 104.525 103.96C104.71 105.423 104.644 107.789 104.329 110.979C104.207 112.217 104.154 114.163 104.212 115.305C104.348 117.998 104.342 119.849 104.193 120.464C103.842 121.918 104.593 126.863 105.277 127.594C105.4 127.726 105.917 128.488 106.426 129.288C107.541 131.042 108.145 131.349 111.823 132.04C114.528 132.549 116.676 132.547 119.256 132.036C119.877 131.913 120.972 131.745 121.689 131.663C123.98 131.401 125.326 129.906 125.957 126.923C126.134 126.089 126.483 124.6 126.734 123.612C126.984 122.625 127.692 119.673 128.306 117.053C128.92 114.432 129.7 111.621 130.04 110.805C130.388 109.97 130.762 108.513 130.896 107.474C131.421 103.403 131.617 102.293 132.577 97.9472C134.186 90.6547 134.356 89.6095 134.093 88.5644C133.886 87.737 133.934 87.4414 134.435 86.4699C134.757 85.8479 135.368 84.3211 135.794 83.077C136.744 80.3002 137.501 78.631 138.317 77.5142C139.055 76.5028 139.802 76.1188 139.298 77.0099C139.118 77.3266 138.567 78.4678 138.073 79.5457C137.099 81.6695 136.314 85.3478 136.519 86.8266C136.58 87.2704 136.509 88.5223 136.36 89.6089C136.211 90.6955 135.884 93.8002 135.632 96.5083C135.2 101.151 135.083 101.768 133.583 107.307C131.651 114.444 131.918 113.598 130.951 115.651C129.321 119.114 128.332 125.204 128.983 127.767C129.193 128.592 131.899 131.759 133.027 132.499C134.201 133.269 134.895 133.457 136.885 133.545C137.762 133.584 140.556 134.024 143.095 134.524C146.629 135.219 147.986 135.384 148.892 135.229C149.543 135.117 150.032 134.891 149.979 134.727C149.924 134.555 149.99 134.537 150.134 134.684C150.442 134.999 152.354 133.868 152.22 133.45C152.166 133.283 152.272 133.257 152.463 133.39C152.694 133.551 153.401 133.095 154.692 131.953C156.53 130.325 156.998 129.804 160.473 125.505C161.384 124.378 162.21 123.414 162.31 123.364C162.621 123.204 163.603 121.336 163.797 120.534C163.899 120.112 164.174 119.458 164.409 119.081C164.875 118.331 166.576 113.75 166.996 112.114C167.298 110.933 167.65 108.382 167.596 107.769C167.575 107.539 167.835 105.907 168.174 104.142C168.567 102.096 168.718 100.633 168.592 100.107C168.484 99.6524 168.456 99.0281 168.53 98.7193C168.605 98.4105 168.658 97.6519 168.649 97.0335C168.605 94.1872 168.612 92.8036 168.675 91.4662C168.713 90.6723 168.595 89.6453 168.413 89.1839C168.231 88.7226 168.157 88.0381 168.247 87.6627C168.356 87.2122 168.298 87.0184 168.075 87.0925C167.87 87.1614 167.834 87.1094 167.983 86.9598C168.24 86.7025 167.852 84.5875 167.477 84.2042C167.358 84.082 167.188 83.7006 167.101 83.3567L166.942 82.7314L167.559 83.3973C168.103 83.9837 168.086 83.8773 167.417 82.5044C166.248 80.105 165.221 78.7224 163.533 77.2747C161.679 75.685 161.394 75.1262 162.884 76.0058C165.187 77.3645 167.869 80.6588 168.502 82.9066C168.713 83.656 169.116 84.6922 169.398 85.2093C169.68 85.7264 169.919 86.6579 169.931 87.2794C169.942 87.9006 170.087 88.5931 170.252 88.8181C170.418 89.0432 170.6 90.0165 170.657 90.981C170.713 91.9455 170.866 93.0395 170.996 93.4119C171.127 93.784 171.186 94.6284 171.129 95.2881C171.071 95.9477 171.104 96.8373 171.202 97.265C171.299 97.693 171.308 98.3379 171.221 98.6983C171.134 99.0591 171.233 99.6377 171.442 99.9842C171.717 100.441 171.731 100.809 171.494 101.324C171.072 102.239 171.286 102.427 172.628 102.321C173.231 102.273 174.052 102.237 174.453 102.241C174.88 102.245 175.544 101.916 176.055 101.446C176.535 101.005 176.89 100.801 176.843 100.993C176.777 101.269 176.852 101.295 177.204 101.12C177.528 100.958 177.701 100.532 177.845 99.5406C178.267 96.6294 178.149 95.0097 177.359 92.8646C177.148 92.2911 177.024 91.278 177.084 90.6138C177.144 89.9493 177.067 89.3753 176.912 89.338C176.758 89.3007 176.727 89.2113 176.843 89.1392C176.959 89.0671 176.91 88.7378 176.732 88.4071C176.157 87.3327 174.367 80.117 174.52 79.485C174.547 79.3734 174.047 78.3825 173.408 77.2834C172.769 76.1839 171.884 74.2784 171.44 73.0488C170.502 70.4466 169.794 69.075 169.45 69.1899C169.316 69.235 169.294 69.1335 169.402 68.9648C169.661 68.5616 168.323 66.9207 167.248 66.3222C166.694 66.0138 165.952 65.0969 165.102 63.6711C163.673 61.2718 162.68 60.2986 160.379 59.042C158.395 57.9586 154.274 56.9351 152.41 57.0628C150.038 57.2252 149.493 57.1906 149.786 56.8964C149.961 56.7212 149.917 56.6549 149.654 56.7015C149.436 56.7402 148.267 56.9171 147.056 57.0945C145.845 57.2718 144.535 57.533 144.144 57.6751C143.486 57.915 143.322 57.8605 141.884 56.9242C141.031 56.369 140.147 55.5845 139.92 55.1811C139.692 54.7778 139.277 54.3926 138.998 54.3252C138.72 54.2579 138.435 53.9985 138.367 53.7488C138.209 53.1749 134.825 50.9849 132.74 50.1077C130.591 49.2036 126.547 48.27 125.363 48.4051ZM92.2318 42.8758C91.1286 43.8703 90.2239 44.7568 90.221 44.8457C90.2183 44.9348 89.9967 45.1436 89.7283 45.3101C88.8148 45.8764 85.6429 49.3593 85.7467 49.6824C85.8036 49.8594 85.7541 49.9062 85.6368 49.7862C85.5196 49.6664 85.1489 49.9099 84.8133 50.3277C84.3459 50.9095 84.2556 51.1753 84.4276 51.4637C84.5999 51.7524 84.5701 51.7833 84.2997 51.5963C84.0443 51.4198 83.6532 51.7114 82.8745 52.6589C81.4232 54.4251 81.3658 54.5971 81.3584 57.201C81.3511 59.7186 81.6001 61.3179 82.0478 61.6294C82.2099 61.742 83.3467 61.4098 84.5739 60.891C85.8012 60.3722 86.8728 59.9639 86.9556 59.9839C87.2778 60.0618 90.3922 58.6704 93.6632 56.987C95.9695 55.8002 97.9724 55.0021 99.7763 54.5508L102.459 53.8795L101.772 52.7198C101.393 52.0817 100.865 51.0333 100.599 50.3897C100.092 49.1653 97.4939 44.729 96.7697 43.8503C95.8636 42.7508 94.4051 41.1022 94.3235 41.0852C94.276 41.0754 93.3347 41.8812 92.2318 42.8758ZM190.062 66.292C190.031 66.4167 190.212 66.8908 190.463 67.3454C190.713 67.8 190.832 68.2252 190.726 68.2909C190.621 68.3563 190.661 68.4403 190.816 68.4776C190.97 68.515 191.202 68.4399 191.331 68.3107C191.469 68.1726 191.72 68.4856 191.94 69.0702C192.146 69.6169 192.242 70.1389 192.154 70.2296C192.065 70.3203 192.114 70.424 192.261 70.4597C192.674 70.5593 192.663 70.2304 192.214 69.0147C191.973 68.3627 191.595 67.8496 191.304 67.7792C191.03 67.713 190.833 67.5467 190.866 67.4097C190.899 67.2729 191.081 67.2687 191.271 67.4006C191.707 67.704 191.831 67.2601 191.453 66.7468C191.248 66.4687 191.1 66.4272 190.927 66.5997C190.755 66.7722 190.607 66.7306 190.402 66.4526C190.245 66.2394 190.092 66.1671 190.062 66.292ZM190.902 66.8202C190.801 66.9208 190.88 67.042 191.077 67.0896C191.275 67.1372 191.4 67.0655 191.357 66.9301C191.313 66.795 191.234 66.6738 191.181 66.661C191.128 66.6481 191.002 66.7197 190.902 66.8202ZM190.987 68.7127C190.863 68.7892 190.971 69.1322 191.228 69.4746C191.484 69.8173 191.562 69.9809 191.4 69.8386C191.16 69.6259 191.143 69.6876 191.304 70.1824C191.688 71.359 192.126 70.5867 191.791 69.3255C191.611 68.6499 191.376 68.471 190.987 68.7127ZM192.067 70.9046C191.867 71.1052 191.815 71.5702 191.891 72.4792C191.937 73.0341 192.159 73.269 192.694 73.3285C192.785 73.3385 192.796 73.541 192.719 73.7785C192.626 74.0675 192.741 74.2209 193.069 74.2423C193.417 74.2649 193.474 74.3571 193.267 74.5624C192.836 74.9903 192.692 75.4621 192.972 75.5297C193.107 75.5624 193.111 75.7165 192.98 75.8718C192.849 76.0273 192.961 75.9859 193.229 75.7796C193.511 75.5626 193.756 75.5279 193.81 75.6972C193.862 75.8579 193.799 76.0246 193.671 76.0674C193.263 76.2038 192.901 77.6997 193.273 77.7129C193.459 77.7197 193.541 77.9348 193.455 78.1928C193.344 78.5284 193.397 78.6007 193.642 78.4484C193.888 78.2962 193.893 78.0659 193.661 77.632C193.352 77.0565 193.361 77.0208 193.844 76.8825C194.326 76.7447 194.337 76.6977 194.076 75.953C193.916 75.4949 193.657 75.2103 193.453 75.2691C193.182 75.3475 193.191 75.312 193.492 75.1085C194.002 74.7649 193.448 73.2693 192.698 72.9646C192.055 72.703 192.089 71.884 192.753 71.6466C193.201 71.486 193.203 71.4742 192.772 71.5032C192.228 71.5396 191.967 71.0468 192.489 70.9675C192.739 70.9295 192.754 70.8877 192.542 70.821C192.378 70.7698 192.165 70.8073 192.067 70.9046ZM192.461 72.2915C192.412 72.4959 192.581 72.7139 192.837 72.7758C193.093 72.8376 193.315 72.8344 193.331 72.7686C193.347 72.703 193.178 72.4851 192.956 72.2844C192.65 72.009 192.529 72.0108 192.461 72.2915ZM193.803 77.2769C193.968 77.3954 194.189 77.4391 194.294 77.3741C194.399 77.3091 194.264 77.2122 193.993 77.1587C193.695 77.0996 193.62 77.146 193.803 77.2769ZM132.073 81.7698C132.039 81.9112 132.132 82.0562 132.279 82.0919C132.427 82.1275 132.505 82.024 132.453 81.8618C132.401 81.6995 132.308 81.5546 132.247 81.5397C132.185 81.5248 132.107 81.6284 132.073 81.7698ZM49.9465 64.6195C49.3989 64.6047 48.4764 64.6714 47.8966 64.7672C47.3166 64.8633 45.6484 65.0932 44.1893 65.2787C42.7301 65.4639 40.7769 65.8592 39.8487 66.1575C38.9208 66.4555 38.0777 66.6793 37.9754 66.6546C37.8732 66.6299 37.4186 66.8205 36.9657 67.0779C36.5127 67.3355 36.158 67.4798 36.1776 67.3985C36.1972 67.3173 36.0088 67.3526 35.7587 67.4772C35.5086 67.6018 35.3486 67.8418 35.4028 68.0109C35.4569 68.1796 35.3993 68.2136 35.2743 68.0859C35.1494 67.9581 33.2504 68.6743 31.054 69.6773C28.8576 70.6804 26.5568 71.7121 25.9412 71.9702C25.3253 72.2282 24.7003 72.6667 24.5523 72.9444C24.309 73.4013 24.3642 73.4508 25.1313 73.4661C26.1881 73.4868 29.8882 73.2118 30.6481 73.0557C30.9589 72.9918 32.197 72.8697 33.3993 72.7841C34.6017 72.6985 36.2671 72.5582 37.1001 72.4727C40.3279 72.1406 41.4196 72.1184 43.3683 72.3459C44.4781 72.4756 45.7689 72.7719 46.2369 73.0047C46.7046 73.2375 47.3373 73.4224 47.6423 73.4159C48.0541 73.4068 48.4572 73.8291 49.2033 75.0516C49.7564 75.9581 50.2674 76.6799 50.3387 76.6561C50.4098 76.6319 50.4263 76.6544 50.3758 76.7059C50.3249 76.7573 50.4373 77.0905 50.6249 77.4464C51.2201 78.5734 50.692 83.131 49.6413 85.937C48.5653 88.8109 48.5297 88.8872 47.7609 89.9728C45.8297 92.6994 42.8865 95.2851 40.351 96.4824C38.4211 97.3937 37.8756 97.5354 36.5803 97.4632C36.004 97.431 35.078 97.5117 34.5227 97.6426C32.7672 98.0561 22.894 97.8762 21.8877 97.4127C21.4716 97.2207 20.8845 97.2245 20.2739 97.4228C19.7461 97.5944 18.4906 97.7234 17.4839 97.7093C15.3793 97.6801 15.3235 97.6987 15.3712 98.415C15.405 98.9218 17.6018 100.557 17.955 100.338C18.0371 100.287 18.3659 100.475 18.6858 100.755C19.2607 101.258 22.5833 102.73 23.81 103.025C24.159 103.109 24.5379 103.271 24.652 103.384C25.0567 103.787 26.104 104.032 26.3541 103.782C26.5458 103.59 26.7331 103.637 27.1212 103.976C27.7297 104.508 31.4677 105.638 31.7341 105.371C31.8358 105.269 32.0173 105.286 32.1374 105.409C32.5199 105.8 36.6799 106.718 38.6003 106.835C43.9386 107.16 45.7092 107.061 45.6313 106.441C45.5766 106.004 46.0617 106.013 46.2023 106.451C46.253 106.609 46.8843 106.631 47.678 106.501C48.4409 106.377 49.0285 106.161 48.9833 106.021C48.9385 105.881 49.0621 105.878 49.2585 106.014C49.4548 106.151 49.6462 106.135 49.6841 105.978C49.7219 105.821 49.9381 105.738 50.1647 105.793C50.6932 105.921 53.9013 104.594 55.3494 103.649C55.9632 103.248 56.781 102.739 57.1671 102.517C57.5532 102.295 57.9338 101.845 58.013 101.517C58.0966 101.171 58.3096 100.957 58.5202 101.008C58.7199 101.057 59.4903 100.369 60.2321 99.4806C61.2745 98.232 61.6494 97.5652 61.8818 96.5456L62.1826 95.2261L61.6113 96.1766C60.8927 97.3723 58.9793 99.5597 57.6807 100.669C57.1347 101.136 56.6333 101.726 56.5669 101.981C56.4986 102.243 56.3463 102.342 56.2164 102.209C56.0902 102.08 55.4624 102.302 54.8214 102.703C53.5741 103.483 50.4441 104.772 50.0364 104.673C49.9009 104.641 49.7283 104.702 49.6527 104.811C49.4692 105.074 48.0227 105.073 48.0864 104.81C48.114 104.696 48.9948 104.346 50.0436 104.032C52.164 103.398 56.8704 100.688 57.0351 100.007C57.0932 99.7664 57.3131 99.5463 57.5238 99.518C58.0674 99.4447 60.1412 96.7159 61.363 94.4656C63.4204 90.6774 64.9796 83.336 64.7954 78.305C64.7418 76.8452 64.4297 75.2415 64.1264 74.8683C64.0454 74.7687 63.9101 74.2462 63.826 73.7072C63.7419 73.1682 63.4369 72.3641 63.1483 71.9202C62.5458 70.9928 62.2544 70.0715 62.5896 70.1525C62.7144 70.1826 63.2602 70.8168 63.8027 71.5618L64.7889 72.9166L63.7498 71.2693C63.1784 70.363 62.3372 69.3431 61.8804 69.0028C59.0952 66.9262 58.5711 66.681 54.7265 65.6557C52.645 65.1006 50.494 64.6342 49.9465 64.6195ZM219.595 109.119C219.302 109.111 218.897 109.185 218.695 109.282C218.493 109.38 218.224 109.353 218.097 109.223C217.896 109.018 216.573 108.797 210.866 108.014C210.222 107.926 208.937 107.744 208.009 107.61C207.081 107.476 206.067 107.347 205.756 107.324C205.444 107.3 204.501 107.199 203.661 107.1C202.821 107 201.803 107.037 201.399 107.181C200.995 107.325 200.589 107.4 200.497 107.346C200.219 107.185 198.703 108.561 198.305 109.338C198.099 109.737 197.726 110.262 197.475 110.503C197.223 110.745 196.785 111.575 196.501 112.348C196.037 113.608 196.032 113.782 196.448 114.037C197.033 114.394 197.852 114.299 197.721 113.888C197.666 113.718 197.715 113.674 197.829 113.791C197.943 113.908 198.794 113.841 199.719 113.643C200.645 113.444 201.936 113.32 202.59 113.367C203.243 113.414 204.527 113.351 205.444 113.226C206.36 113.101 207.745 113.022 208.521 113.049C209.297 113.077 210.294 113.009 210.735 112.898C211.665 112.665 214.407 112.403 215.571 112.437C217.264 112.485 218.166 112.044 219.239 110.646C219.807 109.904 220.24 109.26 220.201 109.215C220.161 109.169 219.889 109.126 219.595 109.119ZM64.6424 74.3388C64.814 74.6888 65.1446 75.6871 65.3772 76.5573C65.8814 78.4441 66.0391 78.3138 65.5925 76.3796C65.42 75.6321 65.0653 74.7237 64.8045 74.3613L64.3304 73.7025L64.6424 74.3388ZM176.584 102.624C175.443 103.065 174.15 103.416 173.709 103.405C173.269 103.393 172.445 103.405 171.879 103.431C170.952 103.473 170.848 103.549 170.832 104.196C170.823 104.591 170.623 105.198 170.388 105.544C170.038 106.061 170.029 106.284 170.337 106.797C170.547 107.146 170.902 107.395 171.143 107.363C171.697 107.288 173.19 108.981 173.508 110.044C173.643 110.492 173.838 110.831 173.942 110.796C174.047 110.761 174.113 110.876 174.09 111.051C174.068 111.226 174.087 112.725 174.134 114.383C174.25 118.508 174.058 119.191 172.516 120.147C171.841 120.565 171.044 120.848 170.744 120.775C170.444 120.703 170.101 120.788 169.98 120.964C169.82 121.198 169.45 121.17 168.603 120.861L167.445 120.439L168.072 121.306C168.532 121.941 169.089 122.311 170.155 122.69C170.955 122.975 171.992 123.469 172.459 123.788C172.926 124.108 173.806 124.479 174.415 124.613C175.215 124.789 175.749 125.109 176.34 125.768C176.79 126.269 177.347 126.725 177.579 126.781C177.811 126.837 178.121 127.065 178.268 127.287C178.415 127.51 178.386 127.201 178.203 126.601C178.02 126.001 177.891 125.173 177.916 124.763C177.941 124.352 177.806 123.733 177.617 123.388C177.099 122.444 176.479 119.471 176.449 117.788C176.434 116.968 176.348 114.763 176.256 112.889C176.113 109.954 176.176 109.121 176.714 106.877C177.113 105.207 177.59 103.849 178.043 103.094C178.431 102.447 178.728 101.896 178.703 101.87C178.678 101.845 177.724 102.184 176.584 102.624ZM40.615 73.9546C39.7213 73.9365 38.4156 73.9764 37.7131 74.0427C37.0109 74.1092 35.5187 74.1841 34.397 74.2091C33.2757 74.234 32.2092 74.3043 32.0274 74.3651C31.8457 74.4257 31.0237 74.4658 30.2005 74.4538C29.3775 74.4419 27.9976 74.4566 27.1336 74.4865C26.27 74.5165 25.3403 74.487 25.0681 74.4212C24.3609 74.2504 24.3797 74.5649 25.1503 75.8015L25.8275 76.8879L27.7426 77.0213C29.5626 77.1481 31.1523 77.318 33.1753 77.6016C34.6175 77.8039 36.8135 78.332 41.5511 79.616C44.4385 80.3983 46.229 80.7727 46.7347 80.6992C47.3762 80.6063 47.5811 80.692 47.9446 81.2051L48.3823 81.823L48.1322 81.0643C47.9653 80.5578 48.0134 79.8665 48.2769 78.9848C48.7579 77.3741 48.401 76.3537 47.1603 75.7924C46.6983 75.5833 46.2828 75.2946 46.2367 75.1509C46.1124 74.7639 42.4851 73.992 40.615 73.9546ZM65.8967 80.0904C65.8365 80.3929 65.8819 80.4684 66.0124 80.283C66.1306 80.1151 66.1751 79.891 66.1114 79.7853C66.0478 79.6795 65.9513 79.8168 65.8967 80.0904ZM177.307 108.097C177.156 108.796 177.04 109.738 177.05 110.189C177.061 110.69 177.195 110.245 177.393 109.047C177.767 106.794 177.714 106.217 177.307 108.097ZM177.016 112.086C177.004 112.532 177.052 113.095 177.124 113.336C177.207 113.618 177.261 113.484 177.275 112.965C177.287 112.519 177.239 111.956 177.167 111.714C177.084 111.433 177.03 111.567 177.016 112.086ZM168.722 113.625C168.212 115.675 167.663 117.607 167.501 117.917C167.311 118.284 167.326 118.678 167.544 119.04C168.062 119.902 170.408 120.19 171.482 119.524L172.296 119.019L172.191 117.627C172.134 116.861 172.185 115.825 172.306 115.325C172.538 114.367 171.927 111.381 171.349 110.649C171.167 110.418 170.71 110.154 170.333 110.063L169.648 109.897L168.722 113.625ZM195.084 116.723C195.05 116.865 195.115 117.309 195.229 117.711C195.343 118.113 195.464 118.326 195.498 118.184C195.533 118.043 195.467 117.598 195.353 117.197C195.239 116.795 195.118 116.582 195.084 116.723ZM177.094 114.962C177.11 115.34 177.209 115.793 177.314 115.968C177.442 116.18 177.496 116.057 177.477 115.599C177.461 115.221 177.362 114.768 177.257 114.593C177.129 114.381 177.075 114.504 177.094 114.962ZM195.316 119.092C195.264 119.304 195.335 119.743 195.474 120.067C195.795 120.817 195.89 120.398 195.617 119.437C195.497 119.014 195.371 118.869 195.316 119.092ZM177.33 116.802C177.303 116.937 177.383 117.379 177.507 117.783L177.734 118.518L177.723 117.835C177.712 117.123 177.421 116.356 177.33 116.802ZM177.603 118.969C177.548 119.197 177.591 119.473 177.699 119.584C177.807 119.694 177.912 119.608 177.932 119.392C177.986 118.822 177.72 118.482 177.603 118.969ZM178.072 120.913C178.087 121.291 178.224 121.814 178.377 122.075C178.622 122.493 178.639 122.448 178.522 121.702C178.343 120.563 178.037 120.026 178.072 120.913ZM178.664 123.573C178.749 123.931 178.92 124.431 179.043 124.685C179.166 124.94 179.313 125.618 179.37 126.193C179.426 126.768 179.621 127.274 179.802 127.318C180.293 127.436 180.288 127.089 179.78 125.789C179.529 125.144 179.239 124.26 179.136 123.823C179.032 123.387 178.849 123.006 178.728 122.976C178.607 122.947 178.578 123.216 178.664 123.573ZM166.331 121.16C166.285 121.349 166.418 121.544 166.625 121.594C166.91 121.663 166.953 121.585 166.803 121.274C166.694 121.049 166.562 120.853 166.51 120.841C166.457 120.828 166.376 120.972 166.331 121.16ZM229.586 137.328C229.526 137.63 229.571 137.706 229.702 137.52C229.82 137.352 229.864 137.128 229.801 137.023C229.737 136.917 229.641 137.054 229.586 137.328ZM227.153 136.826C226.752 136.882 226.685 136.973 226.89 137.183C227.054 137.35 227.375 137.336 227.677 137.148C228.219 136.812 228.037 136.7 227.153 136.826ZM165.961 122.69C165.911 122.897 165.724 123.384 165.546 123.771L165.221 124.475L166.653 124.862C167.44 125.075 168.166 125.386 168.266 125.553C168.372 125.73 168.914 125.882 169.56 125.917C170.171 125.95 170.706 126.082 170.749 126.212C170.792 126.341 171.52 126.833 172.366 127.304C174.024 128.227 175.247 129.128 178.436 131.774C179.558 132.705 180.719 133.526 181.016 133.598C181.321 133.672 181.517 133.892 181.465 134.105C181.352 134.575 182.149 135.325 182.601 135.174C182.82 135.1 182.85 135.189 182.687 135.428C182.453 135.77 182.892 136.772 183.319 136.876C183.422 136.901 183.784 137.386 184.122 137.954C185.018 139.457 186.288 140.962 186.801 141.127C187.046 141.206 187.406 141.492 187.601 141.762C187.797 142.032 188.432 142.535 189.014 142.878C189.596 143.222 190.166 143.614 190.281 143.749C190.842 144.407 194.878 146.469 196.855 147.107C202.281 148.859 205.695 148.884 210.226 147.205C211.098 146.881 212.034 146.548 212.306 146.463C212.578 146.378 213.048 146.155 213.351 145.967C213.654 145.779 214.48 145.448 215.187 145.23C215.893 145.012 216.498 144.727 216.529 144.596C216.561 144.465 217.184 144.118 217.913 143.823C218.643 143.529 219.199 143.163 219.15 143.01C219.1 142.854 218.93 142.863 218.764 143.029C218.6 143.193 218.375 143.313 218.263 143.297C217.892 143.243 216.498 143.615 216.458 143.78C216.437 143.868 216.215 143.909 215.966 143.869C215.095 143.731 211.048 145.054 210.937 145.513C210.863 145.817 210.712 145.873 210.452 145.692C210.221 145.531 209.897 145.58 209.622 145.815C208.667 146.635 203.005 146.791 200.057 146.08C198.127 145.614 193.966 143.923 192.582 143.042C190.554 141.75 187.57 139.482 187.093 138.868C186.826 138.526 186.392 138.278 186.072 138.285C185.667 138.293 185.564 138.194 185.694 137.918C185.804 137.686 185.219 136.68 184.176 135.306C183.243 134.077 182.454 132.866 182.423 132.614C182.363 132.127 182.335 132.052 181.669 130.633L181.24 129.72L180.653 130.735C180.067 131.747 179.453 131.876 179.679 130.939C179.829 130.32 179.188 129.553 177.145 127.908C175.152 126.303 171.849 124.398 169.876 123.715C169.059 123.431 167.864 123 167.221 122.756C166.291 122.403 166.034 122.389 165.961 122.69ZM227.7 138.074C227.277 138.271 226.865 138.417 226.785 138.397C226.472 138.322 221.924 140.051 221.872 140.266C221.807 140.536 221.837 140.528 225.014 139.347C226.373 138.843 227.731 138.355 228.034 138.263C228.784 138.035 229.044 137.855 228.731 137.779C228.587 137.744 228.123 137.877 227.7 138.074ZM167.188 123.726C167.24 123.888 167.333 124.033 167.395 124.048C167.456 124.063 167.535 123.959 167.569 123.818C167.603 123.676 167.51 123.532 167.362 123.496C167.214 123.46 167.136 123.564 167.188 123.726ZM180.058 128.077C179.921 128.278 179.876 128.788 179.958 129.21L180.107 129.977L180.475 129.433C180.702 129.098 180.789 128.675 180.701 128.331C180.529 127.654 180.386 127.598 180.058 128.077ZM61.5394 99.7965C61.3868 99.9493 61.3138 100.16 61.377 100.265C61.5485 100.55 61.8779 100.272 61.8452 99.8693C61.8226 99.5873 61.7627 99.5728 61.5394 99.7965ZM165.5 125.988L164.656 125.87L164.161 127.919C163.57 130.366 163.675 130.507 165.91 130.255C166.776 130.158 167.557 130.152 167.646 130.243C167.735 130.334 168.631 130.8 169.637 131.278C170.77 131.816 171.933 132.614 172.696 133.377C173.822 134.501 174.318 134.834 174.922 134.872C175.042 134.88 175.056 134.97 174.953 135.073C174.85 135.176 175.451 135.811 176.289 136.483C177.128 137.155 178.058 138.078 178.356 138.534C178.655 138.99 179.38 139.952 179.969 140.672C180.558 141.393 181.415 142.588 181.873 143.328C182.793 144.813 186.642 148.111 189.353 149.738C191.489 151.019 195.325 152.415 196.479 152.331C196.96 152.296 198.258 152.3 199.363 152.34C202.102 152.439 204.466 151.921 207.244 150.613C208.134 150.194 208.981 149.879 209.126 149.914C209.271 149.949 209.93 149.68 210.59 149.316C211.25 148.951 211.907 148.681 212.05 148.716C212.193 148.75 212.486 148.518 212.701 148.2C212.917 147.883 213.507 147.551 214.014 147.464C214.52 147.377 215.296 147.058 215.739 146.756C216.181 146.453 216.807 146.17 217.13 146.125C217.453 146.081 217.841 145.813 217.991 145.53C218.261 145.025 218.247 145.023 217.312 145.438C215.273 146.341 211.494 147.742 210.329 148.028C209.657 148.192 208.84 148.48 208.513 148.667C207.71 149.126 203.848 149.402 201.595 149.161C200.135 149.005 194.442 147.645 194.486 147.462C194.492 147.438 194.11 147.27 193.636 147.089C193.163 146.908 192.258 146.403 191.625 145.968C190.991 145.532 190.049 144.929 189.531 144.627C189.013 144.325 187.957 143.571 187.183 142.951C186.409 142.331 185.729 141.812 185.671 141.798C185.51 141.759 184.535 140.417 183.605 138.954C182.467 137.164 178.405 132.888 176.801 131.792C176.086 131.303 175.129 130.585 174.676 130.197C174.223 129.809 173.415 129.3 172.881 129.065C172.347 128.831 171.439 128.334 170.865 127.961C169.745 127.235 166.883 126.183 165.5 125.988ZM59.3459 102.107C57.7561 103.775 53.4746 106.146 50.2276 107.155C47.7759 107.918 44.2506 108.343 41.491 108.209C41.199 108.195 40.3605 108.164 39.6277 108.14C38.8949 108.117 36.3647 107.71 34.0047 107.237C31.518 106.739 29.6888 106.482 29.6538 106.627C29.6168 106.78 29.4959 106.745 29.3402 106.535C29.201 106.348 28.4588 106.043 27.6911 105.858C26.9234 105.673 26.244 105.484 26.1813 105.438C26.1186 105.392 25.6213 105.199 25.0762 105.01C24.5311 104.82 23.8761 104.584 23.6209 104.484C22.9347 104.215 22.6956 104.823 23.3164 105.258C24.8696 106.346 30.1285 108.315 34.1109 109.299C34.7526 109.457 38.3567 110.066 38.3684 110.018C38.3744 109.993 38.9513 110.065 39.6505 110.178C40.3497 110.291 41.0365 110.268 41.1768 110.128C41.3171 109.987 41.5277 109.97 41.6449 110.09C41.8566 110.306 44.1373 110.289 45.4747 110.061C45.8599 109.996 46.5525 109.88 47.0138 109.805C49.0742 109.467 50.0127 109.271 50.3518 109.107C50.5523 109.009 51.7672 108.447 53.0516 107.857C54.4781 107.202 55.5092 106.549 55.7017 106.179C55.894 105.81 56.1973 105.618 56.4797 105.686C56.9481 105.799 57.4736 105.201 57.4956 104.531C57.503 104.304 57.6812 104.241 57.9658 104.364C58.3194 104.518 58.4225 104.439 58.4157 104.017C58.4096 103.613 58.497 103.533 58.7529 103.711C59.0191 103.896 59.0889 103.815 59.0585 103.357C59.0286 102.908 59.1244 102.787 59.4477 102.865C59.8001 102.95 59.8368 102.887 59.6538 102.507C59.4504 102.085 59.5944 101.968 60.0715 102.167C60.3181 102.27 60.4161 101.806 60.1954 101.58C60.0987 101.481 59.7164 101.718 59.3459 102.107ZM220.54 140.501C219.94 140.621 219.576 141.02 219.992 141.101C220.278 141.158 221.357 140.646 221.259 140.5C221.213 140.431 220.889 140.432 220.54 140.501ZM60.5492 103.213L59.5922 104.429L60.8327 103.928C61.8455 103.518 62.0612 103.32 62.0075 102.849C61.8958 101.863 61.5414 101.951 60.5492 103.213ZM218.236 141.357C217.795 141.553 217.745 141.638 218.033 141.708C218.242 141.758 218.676 141.684 218.997 141.541C219.438 141.346 219.488 141.26 219.2 141.191C218.991 141.14 218.557 141.215 218.236 141.357ZM216.465 142.018C216.144 142.16 216.001 142.309 216.148 142.35C216.294 142.39 216.677 142.306 216.998 142.164C217.319 142.022 217.462 141.873 217.315 141.833C217.169 141.792 216.786 141.876 216.465 142.018ZM219.677 142.683C219.641 142.832 219.743 142.911 219.903 142.858C220.064 142.804 220.208 142.709 220.223 142.647C220.238 142.584 220.136 142.506 219.997 142.472C219.857 142.438 219.713 142.533 219.677 142.683ZM60.5647 105.406C59.8241 105.72 58.486 106.256 57.5912 106.598C56.6963 106.939 55.71 107.488 55.399 107.818C54.7266 108.531 49.6263 110.875 48.0169 111.211C46.8241 111.459 41.0519 111.638 39.4934 111.475C38.9892 111.422 38.5729 111.395 38.5683 111.413C38.5566 111.462 35.5267 110.915 33.5502 110.508C31.0091 109.984 27.4865 108.788 27.1533 108.335C26.9896 108.112 26.3935 107.778 25.8287 107.593C25.2643 107.407 24.2421 107.072 23.5575 106.849C22.8729 106.626 21.8874 106.218 21.3672 105.942C20.8474 105.666 20.3712 105.471 20.3096 105.51C20.248 105.548 20.7542 106.189 21.4349 106.934C22.7473 108.372 26.24 110.94 28.2367 111.936C28.8957 112.266 29.7406 112.77 30.114 113.059C31.4527 114.092 32.7519 114.622 36.5485 115.686C40.2422 116.722 40.5374 116.765 43.6363 116.723C46.7564 116.682 49.1019 116.241 51.0501 115.33C53.3147 114.271 55.2068 113.578 55.3716 113.746C55.4701 113.847 55.6099 113.686 55.6818 113.389C55.7715 113.018 55.945 112.905 56.2359 113.03C56.4857 113.138 56.8203 113.001 57.052 112.695C57.2679 112.411 57.5937 112.214 57.7759 112.258C58.2143 112.364 61.8351 110.142 61.9544 109.694C62.0054 109.501 62.2593 109.168 62.5185 108.954C62.9257 108.617 62.9624 108.432 62.7896 107.591C62.6796 107.056 62.4896 106.594 62.3678 106.564C62.2458 106.535 62.2425 106.414 62.3604 106.296C62.5966 106.059 62.3857 104.932 62.0942 104.872C61.9937 104.851 61.3053 105.092 60.5647 105.406ZM214.47 142.639C214.152 142.78 213.937 142.973 213.993 143.066C214.05 143.16 214.425 143.072 214.826 142.871C215.662 142.453 215.349 142.25 214.47 142.639ZM212.491 143.371C211.553 143.84 212.044 143.967 213.032 143.51C213.447 143.318 213.658 143.127 213.5 143.085C213.342 143.044 212.888 143.172 212.491 143.371ZM163.59 131.948C161.773 132.372 161.395 132.565 160.309 133.629C159.354 134.565 155.238 136.97 153.416 137.656C152.808 137.886 151.94 138.226 151.488 138.413C150.365 138.876 145.292 138.971 143.664 138.559C142.415 138.243 141.882 138.359 142.53 138.805C142.688 138.915 142.136 138.826 141.302 138.608C140.468 138.39 138.123 137.843 136.09 137.393C133.664 136.855 131.771 136.29 130.58 135.746C128.232 134.674 126.528 134.354 124.851 134.669C123.985 134.831 123.252 134.806 122.807 134.598C122.093 134.264 120.287 134.385 118.432 134.892C116.664 135.374 112.923 138.04 111.453 139.864C109.688 142.056 109.428 143.108 110.305 144.514C111.131 145.84 111.66 145.758 113.247 144.058C114.937 142.248 117.954 140.622 119.93 140.457C122.378 140.252 127.039 141.432 129.381 142.849C131.154 143.922 133.012 145.678 133.635 146.867C134.093 147.742 133.563 149.024 131.705 151.531C130.006 153.824 129.838 154.808 130.889 156.322C131.518 157.228 131.719 157.342 133.305 157.69C134.256 157.899 135.25 158.264 135.513 158.502C136.423 159.323 139.009 160.016 141.256 160.042C143.273 160.064 146.32 160.661 149.981 161.75C151.288 162.139 151.788 162.146 153.327 161.796C155.289 161.349 157.871 159.978 157.707 159.469C157.651 159.295 157.704 159.253 157.823 159.375C158.067 159.624 160.135 156.775 160.816 155.25C161.846 152.944 162.425 151.849 162.659 151.765C162.797 151.715 163.248 150.898 163.661 149.951C164.074 149.003 164.703 147.723 165.058 147.108C165.413 146.492 165.811 145.547 165.941 145.008C166.072 144.469 166.47 143.731 166.826 143.368C167.182 143.005 167.833 142.121 168.273 141.404C168.712 140.687 169.406 139.63 169.814 139.055C170.222 138.48 170.81 137.266 171.121 136.356L171.686 134.703L169.331 133.543C165.514 131.663 165.194 131.574 163.59 131.948ZM53.3016 106.567C53.2655 106.716 53.3673 106.795 53.528 106.742C53.6887 106.688 53.8324 106.593 53.8475 106.531C53.8626 106.468 53.7607 106.39 53.6212 106.356C53.4816 106.322 53.3378 106.417 53.3016 106.567ZM16.1497 101.384C16.1155 101.526 16.2017 101.669 16.3413 101.703C16.4808 101.736 16.623 101.648 16.6571 101.507C16.6913 101.365 16.6051 101.222 16.4655 101.188C16.326 101.155 16.1838 101.243 16.1497 101.384ZM17.3974 101.944C17.4265 102.302 17.7599 102.446 17.8657 102.146C17.9009 102.046 17.8039 101.885 17.6501 101.788C17.4963 101.691 17.3826 101.761 17.3974 101.944ZM18.7614 102.461C18.5254 102.608 18.633 103.073 18.9187 103.142C19.0268 103.168 19.1573 103.016 19.2086 102.804C19.3059 102.401 19.106 102.248 18.7614 102.461ZM19.993 103.262C19.9038 103.631 20.4479 104.112 20.7459 103.927C21.0968 103.71 21.0259 103.443 20.5488 103.185C20.2538 103.025 20.0431 103.054 19.993 103.262ZM21.6508 104.181C21.5266 104.695 22.1704 105.06 22.4581 104.638C22.813 104.118 22.8011 104.08 22.2449 103.945C21.9657 103.878 21.6984 103.984 21.6508 104.181ZM16.9704 103.545C17.0221 103.637 17.5424 104.078 18.1264 104.525C18.8564 105.084 19.1742 105.224 19.1425 104.972C19.1173 104.771 18.805 104.47 18.4487 104.302C18.0925 104.135 17.5928 103.859 17.3386 103.688C17.0844 103.518 16.9187 103.453 16.9704 103.545ZM166.969 146.328C166.576 146.87 163.141 153.585 161.735 156.561C160.895 158.336 158.756 161.684 157.907 162.55C157.354 163.114 155.314 163.681 153.914 163.661L152.977 163.646L154.105 164.539C155.041 165.281 157.069 166.591 158.054 167.09C158.185 167.156 158.584 167.423 158.941 167.683C159.297 167.943 159.935 168.269 160.359 168.408C161.071 168.641 161.307 168.505 163.428 166.637C164.692 165.523 165.693 164.51 165.652 164.385C165.612 164.259 165.678 164.18 165.799 164.21C166.191 164.304 173.423 156.278 173.598 155.554C173.694 155.155 167.95 145.953 167.544 145.854C167.435 145.828 167.177 146.041 166.969 146.328ZM120.081 141.705C117.274 142.298 114.309 145.072 113.605 147.763L113.231 149.196L116.744 150.217C118.676 150.779 120.583 151.387 120.983 151.569C121.382 151.751 122.422 152.199 123.294 152.564C124.165 152.929 125.249 153.442 125.702 153.702C127.158 154.54 127.597 154.524 128.376 153.603C128.77 153.137 129.702 152.077 130.447 151.246C131.955 149.565 132.338 148.599 131.944 147.475C131.362 145.812 127.401 143.296 123.532 142.131C121.633 141.559 121.09 141.492 120.081 141.705ZM173.752 156.028C173.719 156.164 173.567 156.459 173.413 156.683C173.209 156.983 173.237 157.057 173.522 156.962C173.781 156.875 173.824 156.917 173.652 157.089C173.511 157.231 173.322 157.27 173.231 157.177C173.14 157.085 172.762 157.389 172.391 157.854C171.18 159.371 166.314 164.57 165.816 164.879C165.549 165.044 165.259 165.403 165.171 165.676C165.083 165.95 164.972 166.108 164.925 166.029C164.877 165.95 164.447 166.25 163.97 166.695C163.492 167.14 162.658 167.825 162.115 168.218L161.128 168.932L161.808 169.184C162.182 169.322 162.672 169.344 162.896 169.233C163.392 168.985 168.453 164.29 168.85 163.708C169.044 163.424 169.026 163.329 168.792 163.407C168.276 163.58 168.433 163.331 169.019 163.048C169.368 162.879 169.447 162.887 169.265 163.074C169.118 163.226 169.058 163.364 169.134 163.383C169.398 163.446 170.754 161.662 170.625 161.42C170.553 161.285 170.597 161.273 170.724 161.393C170.856 161.518 171.776 160.623 172.874 159.301L174.794 156.991L174.303 156.385C174.033 156.052 173.785 155.891 173.752 156.028ZM135.549 182.982C135.145 183.128 134.72 183.329 134.606 183.429C134.491 183.528 134.323 183.563 134.232 183.506C133.892 183.293 130.733 184.139 130.824 184.419C130.875 184.58 130.813 184.605 130.686 184.475C130.558 184.345 129.391 184.4 128.092 184.597C126.792 184.795 124.671 185.029 123.378 185.118C122.085 185.207 121.066 185.401 121.113 185.549C121.237 185.935 122.27 186.133 122.716 185.857C122.924 185.728 123.077 185.695 123.055 185.785C123.014 185.956 128.222 185.537 128.868 185.317C129.074 185.248 129.39 185.203 129.571 185.218C130.14 185.267 136.335 183.841 136.567 183.608C137.024 183.151 136.307 182.71 135.549 182.982ZM85.8692 173.777C85.999 173.995 86.1847 174.123 86.2818 174.063C86.3791 174.003 86.273 173.825 86.0461 173.668C85.7182 173.441 85.6819 173.463 85.8692 173.777ZM89.8235 176.604C89.9998 176.791 90.2581 176.973 90.3977 177.006C90.5373 177.04 90.5073 176.914 90.331 176.727C90.1548 176.539 89.8964 176.358 89.7569 176.324C89.6173 176.29 89.6473 176.416 89.8235 176.604ZM93.0907 178.643C94.0555 179.235 95.0752 179.766 95.3567 179.824C95.6382 179.882 94.9644 179.419 93.8594 178.796C91.28 177.342 90.8182 177.25 93.0907 178.643Z" fill="#FFB20F"/>
</svg>
