<svg width="89" height="66" viewBox="0 0 89 66" fill="none" xmlns="http://www.w3.org/2000/svg">
<path fill-rule="evenodd" clip-rule="evenodd" d="M49.6395 1.03999C48.5126 2.18281 47.0582 4.08967 46.5126 5.1398C46.3201 5.51025 46.2356 5.71729 46.3248 5.59995C46.4139 5.48262 46.5377 5.32667 46.5998 5.25329C46.662 5.18001 46.6867 5.11996 46.6548 5.11996C46.5777 5.11996 47.0766 4.31602 47.4659 3.81277C47.6363 3.5925 47.8184 3.43901 47.8705 3.47165C47.9227 3.50429 47.9389 3.4612 47.9066 3.37586C47.8514 3.23005 49.2928 1.43721 50.0435 0.718074L50.3517 0.42293L51.3966 0.696848C52.8372 1.07455 55.7248 2.25843 56.252 2.68744C56.4855 2.87752 54.7303 7.55908 53.5804 9.81325L53.0635 10.8266L52.3916 10.7944C52.022 10.7765 51.1953 10.8417 50.5543 10.9391C49.9133 11.0365 49.2231 11.1384 49.0204 11.1655C48.8178 11.1927 48.4862 11.2592 48.2836 11.3134C47.4209 11.5443 45.652 11.3246 44.3378 10.8234C43.4691 10.4921 42.1301 10.2512 40.6956 10.1683C39.39 10.0928 38.2125 10.3049 37.6005 10.7258C37.3918 10.8692 37.1994 10.9866 37.1727 10.9866C37.1459 10.9866 36.852 11.2469 36.5194 11.5651C36.1868 11.8834 35.7015 12.3081 35.441 12.5087C34.8474 12.9661 33.3444 13.8335 32.9889 13.9239L32.7217 13.9919L32.897 13.6218C32.9936 13.4182 33.0962 13.2652 33.1251 13.2818C33.1789 13.3126 33.273 12.2786 33.2515 11.8932C33.0506 8.30084 33.1171 7.16239 33.6506 5.05702C33.9951 3.69778 34.2224 3.09331 34.3892 3.09331C34.4535 3.09331 34.4722 3.03784 34.431 2.97011C34.3879 2.8996 34.4017 2.87571 34.4633 2.91432C34.5224 2.95133 34.8322 2.83806 35.1517 2.6627C36.1117 2.13588 37.8146 1.41289 39.045 1.00991C39.6822 0.801166 40.2171 0.644475 40.2337 0.661861C40.2826 0.713061 40.6906 3.28445 40.8056 4.26663C40.8641 4.76529 40.9558 5.96891 41.0095 6.94127C41.0728 8.08569 41.1643 8.84771 41.2691 9.1019C41.7286 10.2162 43.1401 10.4623 44.1122 9.59757C44.3054 9.42552 44.5018 9.31971 44.5483 9.36237C44.5949 9.40504 44.6009 9.38328 44.5618 9.31395C44.5226 9.24472 44.5393 9.15747 44.599 9.12003C44.7908 8.99992 45.417 7.67994 45.2821 7.67994C45.2624 7.67994 45.1218 7.95599 44.9697 8.29326C44.683 8.92888 44.132 9.59992 43.8965 9.59992C43.6227 9.59992 43.3526 8.77699 43.138 7.28922C42.8489 5.28444 42.5953 4.14066 41.9476 1.91998C41.6414 0.870073 41.0622 0.261331 40.3914 0.284264C39.9169 0.300478 38.0015 0.953912 36.8541 1.49108C36.3664 1.71935 35.9666 1.87326 35.9658 1.83305C35.9648 1.79284 35.9293 1.81214 35.8868 1.87604C35.8443 1.93982 35.4606 2.17662 35.0343 2.40233C34.3617 2.75827 34.2329 2.87432 34.0618 3.2788C33.88 3.70845 33.6013 4.59495 33.4958 5.07857C33.1921 6.47184 33.1022 7.0233 33.0299 7.93785C32.983 8.52931 32.957 9.20526 32.9721 9.43992C33.149 12.204 33.149 12.4486 32.9725 13.064C32.7498 13.8403 32.563 14.1315 32.1867 14.2895C31.9029 14.4085 31.8633 14.3855 31.2708 13.7543C29.5767 11.9503 27.3009 10.5671 26.0196 10.5625C25.807 10.5617 24.7527 11.9918 23.9621 13.3533C23.7683 13.6869 23.5644 13.9315 23.5089 13.8967C23.4525 13.8614 23.4424 13.8899 23.4861 13.9614C23.5289 14.0317 23.5171 14.1471 23.4599 14.2179C23.4027 14.2886 23.0674 14.9225 22.7149 15.6265C21.9977 17.0588 21.9648 17.2657 22.2749 18.3986C22.3863 18.8059 22.4546 19.1769 22.4266 19.2229C22.3984 19.2689 22.4211 19.3065 22.4767 19.3065C22.5655 19.3065 22.8526 19.9543 22.7832 19.9979C22.7685 20.0072 22.4958 20.1412 22.1774 20.2957C20.5895 21.0662 19.0244 23.149 18.7529 24.8531C18.7098 25.1239 18.5705 26.2864 18.5667 26.4071C18.5648 26.4699 18.1653 26.118 17.679 25.6252C16.7117 24.645 15.8765 24.1582 14.5994 23.83C13.5896 23.5705 11.3152 23.6723 9.96642 24.0375C7.9574 24.5813 6.6023 25.3165 4.59433 26.9517C1.32685 29.6123 1.24485 29.6975 1.32769 30.3393C1.37022 30.6688 2.33931 31.9354 2.48131 31.847C2.51636 31.8251 2.78195 31.7791 3.07144 31.7449C5.18288 31.4952 9.06039 31.4884 10.8612 31.7313C11.1507 31.7703 11.4974 31.8165 11.6317 31.8339C11.7661 31.8511 11.9165 31.9076 11.966 31.9592C12.1342 32.1348 11.8951 33.535 11.5564 34.3579C11.1229 35.4113 10.7686 35.9587 10.0015 36.7603C9.07007 37.7336 9.09092 37.725 5.07151 38.7883C4.08726 39.0486 2.73721 39.3985 2.0714 39.5657C1.40559 39.7331 0.726617 39.9235 0.562506 39.9889C0.398395 40.0544 0.225757 40.0838 0.178808 40.0544C0.0290133 39.9605 -0.039516 40.3299 0.0232231 40.8932C0.128174 41.8361 0.173755 41.9353 0.775145 42.5303C1.48622 43.2338 1.99624 43.4846 5.86101 45.0323C6.70062 45.3685 7.48781 45.5832 8.31794 45.7024C8.59827 45.7427 8.92986 45.7985 9.05481 45.8267C9.17987 45.8548 9.96905 45.878 10.8086 45.8783C12.2317 45.8788 12.6029 45.834 14.3876 45.4473C15.084 45.2964 16.6077 44.5565 17.3825 43.9932C17.8091 43.683 18.1938 43.4616 18.2372 43.5011C18.2807 43.5406 18.2868 43.5206 18.2508 43.4565C18.1699 43.3124 18.8444 42.6312 18.9561 42.7444C19.0005 42.7895 19.0215 42.7783 19.0026 42.7196C18.952 42.5622 19.5573 41.9143 19.682 41.9924C19.7408 42.0292 19.7573 42.0078 19.7189 41.9447C19.6378 41.8117 20.4 41.1367 20.4985 41.2544C20.5347 41.2976 20.7662 41.837 21.0129 42.453C21.2598 43.069 21.5043 43.6186 21.5563 43.6743C21.6084 43.7301 21.651 43.8407 21.651 43.9202C21.651 43.9996 21.8886 44.4298 22.1791 44.8762C22.732 45.726 22.7399 45.7781 22.4249 46.4847C22.1459 47.1103 21.7415 48.893 21.7963 49.2553C21.8321 49.492 21.812 49.5811 21.7338 49.5322C21.664 49.4884 21.6486 49.5092 21.6947 49.5849C21.7366 49.6536 21.8058 49.6878 21.8485 49.6611C21.8913 49.6344 22.1297 50.0296 22.3784 50.5393C23.1246 52.0684 24.6923 54.6627 25.2967 55.3682C25.3761 55.461 25.418 55.5603 25.3897 55.589C25.2254 55.7555 26.838 55.4256 27.2524 55.2079C28.0837 54.7713 29.3356 53.7723 30.3882 52.7059C30.9382 52.1487 31.4237 51.7018 31.4672 51.7128C31.5106 51.7238 31.5356 51.6968 31.5228 51.6529C31.5098 51.6088 31.5873 51.4394 31.695 51.2762C31.8765 51.0009 31.904 50.9918 32.077 51.1504C32.4527 51.4948 32.7372 52.3794 32.7277 53.1729C32.6893 56.3446 32.611 58.9865 32.5526 59.0824C32.5093 59.1532 32.5451 59.1727 32.646 59.1336C32.7701 59.0853 32.8093 59.1432 32.8096 59.3748C32.8098 59.6334 32.996 60.4637 33.4355 62.1649C33.524 62.5073 33.9794 63.2762 34.0508 63.2037C34.0703 63.1839 34.6162 63.4223 35.2637 63.7334C36.285 64.2244 38.1335 64.9048 39.0457 65.1256C39.2045 65.164 39.3153 65.227 39.2919 65.2653C39.2685 65.3037 39.4754 65.3305 39.7516 65.3251C40.6691 65.307 41.0997 64.8048 41.5528 63.2247C41.682 62.7745 41.8276 62.431 41.8764 62.4617C41.9252 62.4922 41.9394 62.4492 41.9079 62.366C41.8764 62.2828 41.9443 61.8363 42.0587 61.3738C42.3307 60.2746 42.6687 58.5038 42.805 57.4632C42.9173 56.6058 43.1649 55.9758 43.5159 55.6541C43.7099 55.4763 43.7312 55.4829 44.0331 55.8141C44.3684 56.182 44.4877 56.414 45.033 57.7595C45.2234 58.2288 45.4935 58.8288 45.6335 59.0928C46.1737 60.1119 46.5117 60.6928 46.5644 60.6928C46.5946 60.6928 46.5015 60.4888 46.3575 60.2395C45.7142 59.1255 44.4831 56.3627 44.4598 55.9806C44.4538 55.8823 44.4166 55.822 44.3772 55.8467C44.3379 55.8713 44.0993 55.6879 43.8472 55.4389C43.595 55.1899 43.3413 54.9837 43.2834 54.9807C43.2255 54.9776 43.0036 54.9368 42.7902 54.8901C42.5412 54.8355 42.2586 54.8531 42.0007 54.9394C41.7799 55.0133 41.5942 55.054 41.5882 55.0299C41.5821 55.0059 41.4512 55.1379 41.2972 55.3234C40.8164 55.9024 40.6888 56.3792 40.5892 57.9686C40.4331 60.4599 39.9034 64.3335 39.6654 64.7236C39.5228 64.9574 35.8491 63.7838 35.6301 63.4346C35.5858 63.3639 35.5488 63.3415 35.5479 63.3847C35.5458 63.4884 34.3628 62.9568 34.2749 62.8127C34.2375 62.7514 34.1767 62.7054 34.1397 62.7104C33.9231 62.7397 33.8582 62.7053 33.9246 62.5963C33.9712 62.5202 33.9536 62.5021 33.8787 62.549C33.7515 62.6287 33.6624 62.4548 33.4387 61.6909C33.3676 61.4478 33.3463 61.1884 33.3915 61.1144C33.4413 61.0327 33.4308 61.0065 33.3647 61.0479C33.2427 61.1244 33.1968 60.9433 32.9101 59.2528C32.7439 58.2734 32.7208 57.7534 32.7706 56.1062C32.8838 52.363 32.8839 52.3675 32.6259 51.8396C32.3404 51.2559 31.8072 50.6596 31.4096 50.4796C30.7632 50.1869 29.9872 50.3831 29.5931 50.9392C28.4961 52.4869 27.9314 53.1509 27.8081 53.0378C27.7612 52.9948 27.7506 53.0094 27.7847 53.0704C27.9043 53.284 25.6506 55.4258 25.5039 55.2378C24.6818 54.185 23.3672 52.0248 22.5422 50.371C21.9145 49.1125 21.893 49.0431 21.9814 48.5577C22.1275 47.7547 22.5148 46.5072 22.6011 46.5612C22.6445 46.5884 22.6778 46.5512 22.6753 46.4784C22.653 45.8515 22.7738 45.8374 23.3729 46.3969C23.9873 46.9709 24.6247 47.2479 25.3354 47.2498C26.0138 47.2518 27.3856 46.9361 28.1017 46.6135L28.6049 46.3868L29.1952 46.6607C29.8017 46.942 30.049 46.9964 31.2318 47.1082C32.0363 47.1842 33.5431 47.0039 34.448 46.7233C35.1463 46.5068 36.6914 45.7839 37.7375 45.1843L38.4025 44.8032L38.8955 45.0523C39.5501 45.383 40.4178 45.5409 41.7395 45.57C42.7335 45.5918 42.8106 45.608 42.6342 45.758C42.2833 46.0564 41.686 46.8708 41.3814 47.4663C41.1202 47.9769 41.0814 48.1704 41.082 48.9596C41.0825 49.9249 41.3449 50.7683 41.7643 51.1529C41.8734 51.2529 41.9327 51.3838 41.8962 51.4436C41.8581 51.506 41.8817 51.52 41.9512 51.4764C42.0181 51.4346 42.0728 51.4501 42.0728 51.5111C42.0728 51.7315 42.8457 52.0309 43.2834 51.98C43.7771 51.9227 43.8163 51.9232 44.2308 51.9938C44.4045 52.0235 44.9492 52.0741 45.4414 52.1064C48.3639 52.2988 49.102 52.4677 49.0341 52.929C49.028 52.971 49.0935 52.9778 49.1796 52.9443C49.2657 52.9108 49.3363 52.9269 49.3363 52.98C49.3363 53.2112 50.9001 53.544 51.9932 53.5454L52.5975 53.5462L53.0085 54.4262C53.7086 55.9253 54.0543 56.7153 54.2195 57.1931C54.3067 57.446 54.4804 57.9168 54.6054 58.2395C54.7302 58.5622 55.0638 59.5418 55.3467 60.4163C55.7334 61.6122 55.8322 62.0417 55.7448 62.1484C55.5421 62.3958 53.2526 63.4922 53.1165 63.4069C53.0401 63.359 53.0151 63.371 53.0549 63.4362C53.1272 63.5547 52.162 63.9498 50.7199 64.3919L49.8402 64.6615L49.369 64.1972C48.846 63.6817 47.4428 61.9649 47.442 61.8395C47.4417 61.7954 47.3585 61.6751 47.2572 61.5719C47.156 61.4687 46.9631 61.2407 46.8287 61.0652L46.5844 60.7462L46.7761 61.1192C46.8815 61.3244 47.0196 61.5404 47.083 61.5992C47.1465 61.658 47.4279 62.0181 47.7085 62.3995C48.2566 63.1444 49.9042 64.9143 50.2011 65.0773C50.7457 65.3761 56.4051 62.9622 56.8793 62.229C57.1544 61.8035 57.0559 61.1354 56.2751 58.1315C56.0539 57.2801 55.7463 56.2241 55.5915 55.7848C55.4368 55.3456 55.3043 54.8827 55.297 54.7563C55.2897 54.63 55.2589 54.5422 55.2285 54.5612C55.198 54.5803 55.0728 54.3168 54.9501 53.9757L54.7272 53.3553L55.3999 53.2823C55.77 53.2421 57.0321 53.2392 58.2047 53.2758C60.3424 53.3425 60.4435 53.3593 61.5105 53.8274C61.6929 53.9074 61.9207 53.9729 62.0167 53.9729C62.1219 53.9729 62.1613 54.0218 62.1162 54.0961C62.0711 54.1698 62.0871 54.1903 62.156 54.1472C62.2191 54.1076 62.5462 54.1708 62.8827 54.2876C63.499 54.5016 64.7547 54.8217 64.9897 54.8246C65.0592 54.8255 65.2628 54.6102 65.4421 54.3462C65.6214 54.0822 65.8486 53.8624 65.9472 53.8578C66.0541 53.8528 66.074 53.8279 65.9964 53.7961C65.9082 53.76 65.9954 53.5483 66.2673 53.1379C66.9813 52.06 67.7559 50.6983 68.3849 49.4151C69.1837 47.7856 69.2455 47.9626 67.0737 45.6634C66.1185 44.6522 65.5966 44.1399 65.142 43.7671C64.9054 43.5732 64.9013 43.5476 65.0507 43.1855C65.1366 42.9771 65.3142 42.2832 65.4455 41.6432C65.5766 41.0033 65.6924 40.468 65.7026 40.4537C65.7206 40.4289 66.0202 40.5661 67.1893 41.1346C67.4845 41.2781 67.9789 41.6616 68.2881 41.9868C69.3411 43.0946 69.8126 43.4316 71.3897 44.2031C72.7698 44.8783 73.9485 45.1544 75.4951 45.1646C77.1232 45.1754 78.1211 44.9827 79.1794 44.453C79.6426 44.2211 80.0732 43.9886 80.1365 43.9365C80.1998 43.8842 80.2945 43.8771 80.347 43.9206C80.3996 43.964 80.4087 43.9573 80.3673 43.9054C80.3258 43.8537 80.61 43.5714 80.9989 43.278C81.6365 42.797 81.9873 42.5046 82.8111 41.7678C82.9559 41.6383 83.4037 41.2715 83.8062 40.9527C84.2089 40.6339 84.6392 40.277 84.7626 40.1597C84.8859 40.0423 85.3128 39.6583 85.7111 39.3063C87.1794 38.0091 87.6166 37.5868 88.0771 37.0218C88.5292 36.467 88.5474 36.4177 88.5292 35.7951C88.5045 34.9465 88.4473 34.5749 88.322 34.4478C88.256 34.3809 87.5895 34.4777 86.4365 34.7217C85.4557 34.9292 84.5349 35.1157 84.3901 35.1359C84.2454 35.1563 83.1614 35.3764 81.981 35.6253C79.9712 36.0491 79.7542 36.0747 78.5598 36.0279C77.0749 35.9696 76.1711 35.712 75.3079 35.1009C74.6199 34.6139 73.8851 33.6677 73.5415 32.8264C73.4756 32.665 73.3755 32.5331 73.3191 32.5331C73.1693 32.5331 73.8212 33.665 74.3635 34.3464C75.195 35.3914 76.2399 35.9583 77.847 36.2362C79.0451 36.4433 79.824 36.3838 82.2848 35.8967C83.0664 35.742 84.227 35.5217 84.8638 35.4073C85.5007 35.2928 86.3856 35.124 86.8302 35.0321C87.5787 34.8775 87.6588 34.8783 87.9092 35.0446C88.0581 35.1434 88.1797 35.2726 88.1797 35.3316C88.1797 35.398 88.1254 35.3935 88.0378 35.3198C87.9052 35.2082 86.6223 35.3866 85.0744 35.732C84.415 35.8791 80.4209 36.4664 79.5826 36.5395C78.2265 36.6579 76.5518 36.2689 75.3219 35.55C74.5597 35.1045 73.8997 34.3558 73.2433 33.1925C72.3348 31.5821 71.954 30.0388 72.1543 28.7784C72.246 28.2009 72.241 28.1759 72.0521 28.2783C71.9222 28.3487 71.8746 28.4544 71.9148 28.5828C71.9487 28.691 71.9293 29.0762 71.8717 29.4389C71.7923 29.938 71.8008 30.2064 71.9064 30.5424C72.3854 32.0657 72.5406 32.4971 72.7124 32.7836C72.8185 32.9601 72.8766 33.1515 72.8417 33.2087C72.8036 33.2711 72.834 33.2777 72.9176 33.2253C73.0221 33.1599 73.038 33.1884 72.981 33.3389C72.9392 33.4494 72.9389 33.5054 72.9804 33.4634C73.0493 33.3935 73.4832 34.1218 73.7606 34.773C73.8231 34.9197 74.156 35.2531 74.5004 35.5139C74.8448 35.7748 75.1266 36.0297 75.1266 36.0802C75.1266 36.1309 75.174 36.1426 75.2319 36.1064C75.2898 36.0701 75.3372 36.0855 75.3372 36.1405C75.3372 36.2815 75.7562 36.4393 76.9688 36.7546C78.7588 37.22 80.7964 37.0837 84.4428 36.2552C86.108 35.8767 86.42 35.845 86.6311 36.0327C86.7982 36.1813 86.801 36.2104 86.6553 36.293C86.5651 36.3442 86.3975 36.3559 86.2828 36.3191C86.124 36.268 86.0744 36.3012 86.0744 36.4589C86.0744 36.5959 85.8759 36.7875 85.4869 37.026C85.1638 37.2242 84.8428 37.4344 84.7735 37.493C84.5015 37.7235 83.3784 38.4736 83.1796 38.5576C83.0638 38.6066 82.9099 38.637 82.8374 38.6252C82.7651 38.6133 82.7046 38.6658 82.7031 38.7416C82.7017 38.8176 82.4674 39.0398 82.1828 39.2354C81.8041 39.4957 81.6027 39.5711 81.4327 39.5165C81.2483 39.4572 81.2135 39.4766 81.264 39.6101C81.3044 39.7167 81.227 39.8589 81.0534 39.9972C80.7226 40.2608 80.8018 40.4131 81.1435 40.1705C81.2759 40.0766 81.4566 40.0031 81.5451 40.0071C81.6866 40.0137 81.6869 40.0233 81.5479 40.0871C81.4611 40.127 81.1731 40.2914 80.9079 40.4525C80.3558 40.7879 79.419 41.1361 78.6531 41.2906C77.9154 41.4394 76.1022 41.4361 75.9232 41.2856C75.8408 41.2163 75.6589 41.1942 75.5009 41.2344C75.136 41.3272 74.305 41.0912 73.9482 40.7935C73.7922 40.6632 73.6738 40.5394 73.685 40.5182C73.6963 40.497 73.6889 40.4885 73.6685 40.4994C73.6482 40.5103 73.2218 40.2386 72.7211 39.8958C71.8464 39.2968 70.689 38.1349 69.8302 36.9935C68.4357 35.14 67.2934 32.5376 66.7021 29.8664C66.4052 28.525 66.4477 26.8808 66.8 26.0798C67.0517 25.5076 67.5237 24.9324 67.6676 25.0224C67.716 25.0528 67.7333 25.015 67.7063 24.9387C67.6611 24.8113 68.2859 24.3202 68.8925 24.0065C69.0244 23.9383 69.1032 23.8346 69.0676 23.7762C68.9958 23.6587 68.0051 24.1861 67.4948 24.6136C66.5156 25.4337 66.0512 26.5284 66.0583 27.9998C66.0644 29.2633 66.1289 29.796 66.3236 30.1915C66.4118 30.3707 66.4614 30.577 66.4338 30.65C66.4061 30.7229 66.4523 30.9801 66.5364 31.2215C66.6204 31.4629 66.6658 31.6841 66.6373 31.7131C66.6088 31.742 66.6834 31.9605 66.8032 32.1984C66.9231 32.4365 67.0211 32.7012 67.0211 32.7867C67.0211 32.8723 67.1395 33.1812 67.2843 33.4731C67.429 33.7652 67.5474 34.0782 67.5474 34.1689C67.5474 34.2596 67.5955 34.364 67.6544 34.4008C67.7132 34.4377 67.7293 34.5245 67.6902 34.5937C67.651 34.6631 67.6585 34.6833 67.7068 34.6389C67.8163 34.5382 68.4154 35.5972 68.4247 35.9082C68.4288 36.0424 68.4847 36.116 68.5601 36.0866C68.6308 36.0592 68.8531 36.2924 69.054 36.6049C69.255 36.9173 69.5632 37.3281 69.739 37.5178C69.9147 37.7073 70.087 37.9538 70.122 38.0655C70.157 38.1772 70.5275 38.534 70.9455 38.8583C71.3635 39.1828 71.8154 39.5448 71.9498 39.663C72.0841 39.7811 72.4987 40.0788 72.8709 40.3246C73.2431 40.5703 73.5476 40.7886 73.5476 40.8095C73.5476 40.9156 71.8272 40.0392 71.23 39.6289C70.4494 39.0927 69.0636 37.7161 68.5286 36.9454C67.7502 35.8241 67.3389 35.1382 67.3379 34.9597C67.3373 34.8571 67.2863 34.773 67.2243 34.773C67.0674 34.773 66.0491 32.5531 66.1385 32.4063C66.1786 32.3405 66.1663 32.315 66.1113 32.3496C66.0197 32.4069 65.9365 32.164 65.4991 30.5597C65.3177 29.8943 65.3253 29.9652 65.2676 28.4073C65.2157 27.0059 65.3209 26.3626 65.6582 26.0208C65.7709 25.9066 65.8632 25.7347 65.8632 25.6388C65.8632 25.5429 66.1617 25.1694 66.5266 24.8086C67.1394 24.2028 67.6898 23.8683 69.1791 23.197C69.9797 22.8361 72.2979 22.7593 74.0213 23.0367C75.7081 23.3082 76.6482 23.4844 77.7583 23.7371C80.9398 24.4616 81.6729 24.691 81.4683 24.8982C81.4253 24.9419 81.4552 24.9616 81.5348 24.942C81.6143 24.9225 81.6986 24.9585 81.7219 25.0222C81.7483 25.0939 81.4131 25.1902 80.8403 25.2754C80.3321 25.351 79.7979 25.4729 79.6531 25.546C79.5029 25.6221 79.2996 25.6449 79.1794 25.5993C78.9289 25.504 78.37 25.5456 76.1307 25.826C74.3814 26.0451 73.7023 26.254 73.321 26.6903C73.1622 26.8722 73.1235 26.8863 73.1671 26.7464C73.2048 26.6253 73.1696 26.5598 73.0669 26.5598C72.9415 26.5598 72.9319 26.6038 73.0208 26.7721C73.1058 26.9331 73.0911 27.0664 72.9603 27.3229C72.5339 28.1584 72.3959 28.7931 72.4388 29.7232C72.4618 30.2242 72.5087 30.6625 72.5429 30.6971C72.5771 30.7318 72.6791 30.6531 72.7696 30.5222C72.9919 30.2005 73.5751 29.8416 74.3371 29.5573C75.3295 29.1872 77.1304 28.5734 77.3496 28.5306C77.459 28.5093 77.5948 28.4629 77.6514 28.4275C77.7964 28.3366 79.2054 27.903 80.7584 27.4713C81.3729 27.3006 81.5504 27.1603 81.6564 26.7612C81.7176 26.5309 81.8602 26.1236 81.9733 25.8563L82.179 25.3701L81.9191 24.9209C81.6126 24.3908 81.6312 24.3985 79.0215 23.731C74.7174 22.6302 71.3898 22.2732 69.6181 22.722C67.8775 23.163 66.9421 23.7129 65.7362 25.004C65.0867 25.6992 65.0299 25.7372 65.0257 25.4777C65.0182 25.0222 64.6076 23.7979 64.1589 22.893C63.9297 22.4311 63.7812 22.0185 63.829 21.9763C63.8767 21.9342 64.271 21.6217 64.7052 21.2818C65.413 20.7279 69.1123 17.0665 68.9642 17.0665C68.9311 17.0665 68.9777 16.9599 69.0678 16.8294C69.1579 16.6991 69.2317 16.5128 69.2317 16.4156C69.2317 15.7786 66.541 11.0029 65.6169 9.9997C65.3099 9.66637 65.1264 9.6701 63.8105 10.0362C63.4052 10.1488 63.0736 10.2378 63.0736 10.2336C63.0736 10.2203 62.7699 10.3332 62.1788 10.5665C61.8604 10.6922 61.4207 10.8624 61.2017 10.9448C60.6171 11.1647 59.0206 11.9904 58.2203 12.4867L57.5235 12.9189L56.7721 12.5403C55.9863 12.1442 55.1757 11.5423 55.1826 11.3599C55.1847 11.3012 55.3396 10.8564 55.5267 10.3713C56.4422 7.99791 57.3263 4.93809 57.4941 3.56264C57.59 2.77576 57.371 2.50643 56.1289 1.88478C55.5628 1.60137 54.6674 1.20212 54.1391 0.997538C53.1511 0.614928 51.108 0 50.8245 0C50.7368 0 50.2035 0.467943 49.6395 1.03999ZM50.7574 0.292264C50.856 0.391463 52.2111 0.799993 52.4416 0.799993C52.4995 0.799993 52.5706 0.82666 52.5995 0.859299C52.6285 0.891832 52.9601 1.02943 53.3364 1.1649C53.7127 1.30036 54.5514 1.66527 55.2 1.97588C56.104 2.40862 56.4044 2.50985 56.4867 2.40947C56.5668 2.31155 56.4114 2.18889 55.8728 1.92489C55.4428 1.71412 55.0973 1.60532 55.0172 1.65545C54.9341 1.70751 54.909 1.69684 54.9512 1.62761C55.0348 1.49055 53.6866 0.923726 53.4739 1.0065C53.3923 1.03828 53.3501 1.02388 53.3802 0.974499C53.4103 0.925219 53.0123 0.753487 52.4957 0.592955C51.4594 0.270824 50.5858 0.119679 50.7574 0.292264ZM45.7032 6.63088C45.5013 7.05125 45.3391 7.4473 45.3425 7.51087C45.3461 7.57455 45.5023 7.3145 45.6897 6.93296C46.0867 6.12496 46.1912 5.86662 46.121 5.86662C46.0931 5.86662 45.9051 6.21051 45.7032 6.63088ZM64.8448 10.1492C64.907 10.2502 64.9958 10.309 65.0421 10.28C65.0884 10.251 65.1263 10.3202 65.1263 10.4339C65.1263 10.7578 65.4016 10.9393 65.6202 10.7596C65.7239 10.6744 65.7669 10.6662 65.7233 10.7401C65.6809 10.8115 65.7295 10.9148 65.8346 10.9768C65.9372 11.0372 65.9714 11.0882 65.9105 11.09C65.8497 11.0917 65.7432 11.0356 65.6737 10.9652C65.5755 10.8657 65.5474 10.8657 65.5474 10.9652C65.5474 11.0356 65.5968 11.0932 65.6573 11.0932C65.7177 11.0932 65.7536 11.1533 65.7369 11.2266C65.7203 11.3 65.7538 11.376 65.8113 11.3956C65.8687 11.4153 65.9695 11.4765 66.0351 11.5317C66.1136 11.5978 66.175 11.5776 66.2148 11.4728C66.2871 11.2817 66.1258 11.1575 65.9421 11.2626C65.8404 11.3208 65.8387 11.307 65.9345 11.2018C66.0313 11.0958 65.9768 10.9455 65.6877 10.5196C65.3939 10.087 65.2558 9.9725 65.0242 9.96952C64.7735 9.96632 64.7478 9.99202 64.8448 10.1492ZM64.2315 10.0752C64.1736 10.0941 63.7473 10.2183 63.2841 10.3511C62.1355 10.6805 60.2573 11.4474 59.6629 11.8297C59.524 11.9189 59.3422 12.0022 59.2589 12.0146C59.1757 12.027 59.0289 12.1032 58.9326 12.1838C58.8364 12.2644 58.5766 12.4241 58.3552 12.5386C57.7194 12.8672 57.6969 12.9552 58.1616 13.2936C58.5587 13.5828 59.7887 15.1404 59.9356 15.5398C59.9746 15.6462 60.0864 15.8532 60.1839 15.9999C60.6708 16.7323 61.7924 18.5227 62.3891 19.5198C62.7578 20.1358 63.0719 20.6573 63.0873 20.6787C63.129 20.7368 63.7732 20.3115 64.0736 20.0276C64.2184 19.8907 64.4368 19.7085 64.5591 19.6227C65.121 19.2279 65.9555 18.4117 65.8963 18.3146C65.8601 18.2551 65.8826 18.2395 65.9468 18.2796C66.0128 18.321 66.5255 17.8993 67.134 17.3031L68.2049 16.2537L67.6019 15.0335C67.2703 14.3623 66.9656 13.7892 66.9251 13.7599C66.8845 13.7306 66.789 13.5505 66.7129 13.3599C66.6368 13.1693 66.53 13.0132 66.4758 13.0132C66.4215 13.0132 66.3997 12.976 66.4275 12.9306C66.5029 12.8069 64.6613 10.083 64.4871 10.0604C64.4044 10.0497 64.2894 10.0564 64.2315 10.0752ZM65.2603 10.349C65.2519 10.4627 65.2812 10.5785 65.3256 10.6062C65.3699 10.6339 65.3995 10.5639 65.3913 10.4505C65.3706 10.167 65.2791 10.096 65.2603 10.349ZM38.8096 10.704C38.3046 10.8887 37.1933 11.6736 36.8517 12.0867C36.6972 12.2736 36.1863 12.7559 35.7164 13.1585C35.2465 13.5611 34.8331 13.9372 34.7976 13.9942C34.7623 14.0514 34.6912 14.0977 34.6397 14.0972C34.5884 14.0966 34.1971 14.4165 33.7703 14.808C32.9024 15.6041 32.7434 15.7171 32.6093 15.6331C32.5582 15.6011 31.8735 15.6182 31.0878 15.6712C29.3772 15.7866 29.024 15.9306 28.0903 16.8939C26.9531 18.0673 26.4592 18.5384 25.3354 19.522C24.6993 20.0788 23.6843 20.6932 23.4005 20.6932C23.301 20.6932 23.0811 20.7657 22.9118 20.8544C22.6395 20.997 22.6111 20.9973 22.6647 20.8558C22.7073 20.7432 22.5822 20.777 22.2402 20.9707C21.9648 21.1266 21.7854 21.2944 21.8247 21.3591C21.866 21.4267 21.8442 21.4415 21.7709 21.3957C21.6063 21.2925 20.3056 22.5641 20.1231 23.0066C19.9132 23.5157 19.7235 25.253 19.7003 26.8798C19.6771 28.5057 19.566 29.7569 19.4297 29.929C19.3793 29.9927 19.3269 31.2647 19.3134 32.7557C19.2855 35.8235 19.3469 36.2423 20.0602 37.8586C20.2822 38.3615 20.5472 39.037 20.6492 39.3597C20.7512 39.6823 20.9678 40.2103 21.1305 40.533C21.2932 40.8557 21.5096 41.4076 21.6114 41.7596C21.713 42.1116 21.8532 42.4716 21.9227 42.5596C21.9923 42.6476 22.082 42.9222 22.122 43.1699C22.1621 43.4174 22.2792 43.7294 22.3821 43.8632C22.4852 43.9969 22.6026 44.2134 22.6431 44.3442C22.7556 44.7084 23.3926 45.7844 23.6505 46.0461C23.7769 46.1744 24.0977 46.3544 24.3635 46.4461C25.475 46.8299 26.4197 46.5297 26.8601 45.653C27.1916 44.9931 27.3378 44.4936 27.2209 44.4204C27.1681 44.3874 27.1242 44.2552 27.1233 44.1267C27.1225 43.9981 27.0485 43.6793 26.9587 43.4182C26.869 43.1572 26.8186 42.8546 26.8466 42.7458C26.8963 42.5536 26.6943 41.7827 26.472 41.3154C26.4115 41.1883 26.3517 40.8763 26.3391 40.6221C26.3266 40.3678 26.2439 39.9891 26.1557 39.7808C26.0674 39.5724 25.9712 38.988 25.9419 38.4822C25.9017 37.7861 25.8323 37.47 25.6561 37.1811C25.4464 36.8373 25.4426 36.8067 25.6164 36.8712C25.8005 36.9393 25.8009 36.933 25.6249 36.7294C25.4236 36.4965 25.3838 36.2079 25.5395 36.1104C25.7062 36.0059 25.5829 32.9149 25.3974 32.5514C25.31 32.3802 25.2659 32.2124 25.2993 32.1785C25.3859 32.0907 25.0291 29.7798 24.8599 29.3331C24.6646 28.8173 24.5846 27.6502 24.7405 27.5918C24.831 27.558 24.83 27.5123 24.7368 27.4119C24.6401 27.3077 24.6485 27.2405 24.7744 27.1129C24.9708 26.9139 25.3005 27.0756 25.2518 27.3473C25.1918 27.6818 25.4153 27.5152 25.4853 27.1731L25.5563 26.8264L25.7687 27.087C25.8854 27.2303 25.9586 27.4343 25.9312 27.5404C25.9038 27.6464 25.9244 27.7331 25.9769 27.7331C26.0293 27.7331 26.0723 27.6851 26.0723 27.6264C26.0723 27.5678 26.1153 27.5198 26.1679 27.5198C26.2206 27.5198 26.2595 27.7718 26.2546 28.0798C26.2274 29.7625 26.4912 33.9773 26.6387 34.2192C26.6785 34.2844 26.7317 34.8317 26.7568 35.4354C26.8438 37.5167 26.9324 38.2252 27.1396 38.4941C27.2618 38.6528 27.3355 38.9221 27.3355 39.2103C27.3355 39.4644 27.4018 39.8778 27.4828 40.1293C27.6075 40.5161 27.7795 41.3812 27.807 41.7596C27.8113 41.8183 27.8447 41.9147 27.8814 41.9738C27.918 42.0329 27.9414 42.3747 27.9332 42.7332C27.9251 43.0917 27.9713 43.4514 28.0358 43.5323C28.1004 43.6134 28.1857 43.8333 28.2254 44.0213C28.3196 44.468 28.6198 44.8452 29.0127 45.01C29.1864 45.0829 29.3553 45.2214 29.3881 45.3178C29.4874 45.6103 30.3459 46.2203 30.8804 46.3783C31.282 46.4969 31.587 46.5047 32.3862 46.4164C33.6138 46.2809 34.2654 46.086 35.0199 45.6289C35.5 45.3381 35.6568 45.1627 35.9375 44.603C36.235 44.0096 36.2749 43.8291 36.2677 43.1105C36.2631 42.6609 36.2139 42.1064 36.1581 41.8783C36.1023 41.6502 36.0175 41.1462 35.9695 40.7583C35.9215 40.3704 35.8041 39.765 35.7085 39.413C35.5168 38.7064 35.4749 38.4842 35.3898 37.7225C35.358 37.438 35.293 37.126 35.2453 37.0291C35.1976 36.9323 35.191 36.517 35.2305 36.1064C35.27 35.6957 35.2636 35.2812 35.2165 35.1853C35.1693 35.0893 35.1368 34.847 35.1443 34.6466C35.1516 34.4463 35.0764 34.1567 34.977 34.003C34.8776 33.8493 34.8069 33.6597 34.8197 33.5816C34.8327 33.5036 34.7822 33.2957 34.7077 33.1197C34.5839 32.8276 34.5611 32.1017 34.6404 30.9864C34.6571 30.7517 34.6226 30.4637 34.5637 30.3464C34.3144 29.8493 34.1607 28.7657 34.2895 28.4144C34.3383 28.2813 34.3052 27.9197 34.2084 27.5308C34.1184 27.1686 34.0699 26.8469 34.1005 26.8159C34.1312 26.7847 34.3854 26.7438 34.6654 26.7249C35.3311 26.6798 35.5044 26.9 35.4584 27.7331C35.4405 28.0558 35.5004 28.8958 35.5914 29.5998C35.6883 30.3494 35.7493 31.5206 35.7386 32.4264C35.724 33.6704 35.7561 34.0669 35.9028 34.453C36.1141 35.009 36.3123 35.9426 36.4908 37.2228C36.5601 37.7196 36.7238 38.4876 36.8545 38.9295C37.1632 39.9725 37.3358 40.6985 37.3358 40.9538C37.3358 41.5569 38.0987 43.4237 38.4359 43.6457C38.4966 43.6858 38.7716 43.9356 39.0467 44.201C39.65 44.7827 39.9155 44.846 41.4228 44.7686C42.5311 44.7117 43.3732 44.5077 44.3361 44.063C44.5677 43.956 44.9808 43.7865 45.2542 43.6864C46.1275 43.3665 46.5134 42.6534 46.4784 41.4243C46.4686 41.0807 46.4645 40.4637 46.4691 40.053C46.4738 39.6423 46.4716 38.4183 46.4641 37.333C46.4566 36.2477 46.4963 35.0717 46.5522 34.7197C46.6094 34.3596 46.6183 33.7531 46.5724 33.3331C46.3926 31.6875 46.3642 31.2339 46.3288 29.4398C46.2692 26.4289 46.2365 26.0032 46.0348 25.6183C45.875 25.3137 45.8659 25.1933 45.9704 24.765C46.0374 24.4908 46.1323 23.8345 46.1815 23.3065C46.2912 22.128 46.4298 21.4021 46.6436 20.8871C46.8372 20.4207 47.0935 20.1995 46.9804 20.5965C46.9401 20.7376 46.8321 21.2372 46.7404 21.7065C46.5597 22.6312 46.6004 24.1473 46.8208 24.7075C46.887 24.8756 46.9775 25.3731 47.0222 25.8131C47.0667 26.2531 47.2323 27.5011 47.39 28.5864C47.6603 30.447 47.6728 30.6999 47.6097 33.0131C47.5283 35.9936 47.5527 35.6368 47.3683 36.533C47.0572 38.0447 47.2463 40.5254 47.7444 41.4686C47.9047 41.7721 49.2655 42.7572 49.7775 42.9402C50.3107 43.1308 50.6005 43.1388 51.389 42.9849C51.7363 42.9171 52.8732 42.825 53.9154 42.7804C55.3665 42.7184 55.9143 42.6545 56.2546 42.5078C56.499 42.4025 56.6694 42.2676 56.6331 42.2082C56.5952 42.1461 56.6195 42.1328 56.6899 42.1768C56.8403 42.2711 57.4827 41.6464 57.3906 41.4954C57.3537 41.4349 57.3925 41.4148 57.4803 41.4489C57.586 41.49 57.8197 41.2446 58.2176 40.6744C58.7842 39.8625 58.918 39.614 59.873 37.5997C60.1235 37.0717 60.3561 36.6157 60.3902 36.5864C60.4972 36.4942 60.7051 35.6691 60.7051 35.3366C60.7051 35.1615 60.7511 34.8791 60.8074 34.7089C60.9193 34.3708 61.1521 32.4142 61.1616 31.7331C61.1685 31.2417 61.0648 30.2083 60.9852 29.9731C60.9554 29.8851 60.9029 29.2208 60.8685 28.4968C60.8286 27.6575 60.7495 27.07 60.6502 26.8754C60.5647 26.7076 60.4945 26.4656 60.4945 26.3375C60.4945 26.2094 60.4436 25.907 60.3814 25.6655C60.0947 24.5539 59.9663 24.011 59.8645 23.4808C59.8041 23.166 59.6606 22.7746 59.5457 22.611C59.4307 22.4474 59.3366 22.1862 59.3366 22.0304C59.3366 21.8435 59.2952 21.7731 59.215 21.8233C59.1411 21.8697 59.1221 21.8527 59.1664 21.78C59.2428 21.6548 58.8903 20.8625 58.7071 20.7478C58.6487 20.7112 58.5462 20.5777 58.4793 20.4512L58.3578 20.2212L58.6629 20.4237C58.9315 20.6021 58.9148 20.562 58.5226 20.0872C57.837 19.2574 57.3036 18.8127 56.5048 18.4052C55.6277 17.9576 55.4629 17.7656 56.1305 17.9692C57.1618 18.2837 58.5249 19.321 58.9859 20.1421C59.1397 20.4158 59.3958 20.7838 59.5552 20.9598C59.7147 21.1358 59.8968 21.4782 59.9601 21.7208C60.0233 21.9632 60.1456 22.2209 60.2318 22.2935C60.318 22.366 60.4816 22.7303 60.5952 23.103C60.7088 23.4756 60.8723 23.8899 60.9586 24.0236C61.0449 24.1571 61.1481 24.4825 61.1881 24.7465C61.228 25.0105 61.3252 25.3561 61.4039 25.5145C61.4828 25.673 61.5472 25.9249 61.5472 26.0744C61.5472 26.2241 61.641 26.4415 61.7555 26.5575C61.9067 26.7107 61.9471 26.8535 61.9028 27.078C61.8242 27.4765 61.9259 27.5299 62.442 27.361C62.6736 27.2853 62.992 27.1935 63.1496 27.1569C63.3174 27.1181 63.5464 26.9261 63.7022 26.6938C63.8486 26.4755 63.9683 26.3619 63.9683 26.4414C63.9683 26.5558 64.0002 26.559 64.1216 26.4571C64.2334 26.363 64.2609 26.1793 64.2234 25.7773C64.1133 24.5962 63.9136 23.9725 63.4006 23.2065C63.2635 23.0017 63.1191 22.6163 63.0797 22.3503C63.0403 22.0842 62.9557 21.8665 62.8917 21.8665C62.8277 21.8665 62.807 21.8344 62.8458 21.7951C62.8844 21.7559 62.8337 21.6315 62.7329 21.5186C62.4056 21.152 61.0209 18.4932 61.0209 18.231C61.0209 18.1847 60.7309 17.8437 60.3764 17.4733C60.0219 17.1029 59.4944 16.4399 59.2042 15.9999C58.59 15.0688 58.1827 14.5982 58.0585 14.6758C58.0101 14.7062 57.9921 14.6685 58.0186 14.5921C58.0816 14.4096 57.4018 13.8931 56.9239 13.7603C56.6774 13.6919 56.2998 13.4028 55.8317 12.9244C55.0443 12.1193 54.5631 11.8318 53.542 11.5572C52.6617 11.3204 50.9495 11.3096 50.231 11.5361C49.3165 11.8244 49.0995 11.8625 49.1868 11.7194C49.2388 11.6341 49.215 11.6124 49.1167 11.6555C49.0348 11.6913 48.5932 11.8714 48.1354 12.0556C47.6775 12.2398 47.1886 12.4662 47.049 12.5589C46.8136 12.7153 46.7444 12.7094 46.092 12.4786C45.7052 12.3418 45.2844 12.118 45.1569 11.9814C45.0295 11.8449 44.8304 11.7332 44.7147 11.7332C44.5991 11.7332 44.4631 11.6585 44.4127 11.567C44.2966 11.357 42.7628 10.8191 41.8623 10.6728C40.9343 10.5219 39.2606 10.539 38.8096 10.704ZM25.2995 11.6744C24.9613 12.1686 24.6906 12.6018 24.6979 12.6369C24.7053 12.6721 24.6382 12.7749 24.5487 12.8656C24.2443 13.1741 23.3309 14.8397 23.4022 14.9565C23.4412 15.0205 23.4263 15.0435 23.3689 15.0076C23.3116 14.9717 23.1894 15.1023 23.0974 15.2978C22.9693 15.5701 22.9591 15.6829 23.0538 15.7796C23.1487 15.8765 23.1399 15.8914 23.0163 15.8437C22.8994 15.7987 22.7737 15.9501 22.5582 16.3952C22.1566 17.2249 22.1504 17.2978 22.3941 18.3191C22.6297 19.3066 22.8788 19.9099 23.0837 19.9896C23.1579 20.0184 23.5721 19.7805 24.004 19.461C24.4359 19.1414 24.8173 18.8798 24.8516 18.8798C24.9853 18.8798 26.0743 18.0395 27.1969 17.0699C27.9885 16.3863 28.698 15.8838 29.3624 15.5361L30.3505 15.0189L29.971 14.6294C29.7624 14.4151 29.4562 14.0542 29.2907 13.8272C28.9759 13.3953 27.5376 11.9024 27.1705 11.6266C26.7112 11.2814 25.9834 10.7733 25.9498 10.7744C25.9303 10.7751 25.6376 11.1801 25.2995 11.6744ZM65.8632 11.588C65.8632 11.6397 65.9787 11.8084 66.1201 11.9629C66.2614 12.1173 66.3482 12.2728 66.3131 12.3085C66.2779 12.3441 66.3016 12.3732 66.3657 12.3732C66.4299 12.3732 66.5137 12.3218 66.552 12.259C66.593 12.1918 66.7211 12.2907 66.8627 12.499C66.9952 12.6938 67.0823 12.8893 67.0561 12.9332C67.03 12.9772 67.0589 13.0132 67.1201 13.0132C67.2911 13.0132 67.2557 12.8853 66.9647 12.4513C66.8086 12.2186 66.6118 12.0532 66.491 12.0532C66.3773 12.0532 66.2842 12.0067 66.2842 11.9499C66.2842 11.8931 66.3553 11.8742 66.4421 11.908C66.6418 11.9856 66.6482 11.7999 66.4515 11.6345C66.3449 11.5449 66.2829 11.5426 66.2316 11.6266C66.1803 11.7105 66.1183 11.7083 66.0117 11.6187C65.93 11.55 65.8632 11.5361 65.8632 11.588ZM66.2424 11.7154C66.2126 11.7644 66.2551 11.8044 66.3369 11.8044C66.4186 11.8044 66.4611 11.7644 66.4313 11.7154C66.4015 11.6666 66.359 11.6266 66.3369 11.6266C66.3148 11.6266 66.2722 11.6666 66.2424 11.7154ZM66.455 12.4492C66.4137 12.4909 66.4888 12.615 66.6216 12.725C66.7545 12.8351 66.8005 12.8918 66.7238 12.8513C66.6094 12.7907 66.6084 12.8165 66.7186 12.9952C66.9805 13.42 67.0791 13.0758 66.8281 12.6132C66.6937 12.3654 66.5848 12.3175 66.455 12.4492ZM67.0863 13.206C67.0268 13.3036 67.0504 13.4908 67.1661 13.8399C67.2369 14.053 67.3462 14.124 67.5613 14.0967C67.598 14.092 67.6216 14.1703 67.614 14.2707C67.6047 14.3928 67.6645 14.442 67.7948 14.4194C67.9335 14.3953 67.9647 14.426 67.903 14.5261C67.7746 14.7346 67.7627 14.9332 67.8788 14.9332C67.9349 14.9332 67.9509 14.9933 67.9143 15.0665C67.8776 15.1399 67.9177 15.113 68.0032 15.0068C68.0933 14.895 68.186 14.8582 68.2232 14.9194C68.2587 14.9776 68.25 15.0488 68.2038 15.0777C68.0566 15.1699 68.0565 15.7905 68.2037 15.7604C68.2771 15.7455 68.3296 15.8221 68.3204 15.9313C68.3086 16.0734 68.3361 16.0967 68.418 16.0137C68.4998 15.9309 68.48 15.8401 68.3478 15.692C68.1724 15.4957 68.1725 15.4808 68.3487 15.3809C68.5244 15.2813 68.5245 15.2617 68.3518 14.9945C68.2455 14.8302 68.117 14.7431 68.0428 14.7855C67.9439 14.8419 67.9439 14.8272 68.0429 14.7188C68.2101 14.5359 67.8512 14.0021 67.5285 13.9537C67.2516 13.9121 67.1874 13.5878 67.4252 13.4319C67.5857 13.3265 67.5853 13.3217 67.4192 13.3739C67.2092 13.4397 67.0603 13.2712 67.2573 13.1907C67.352 13.1521 67.3538 13.1343 67.2642 13.1283C67.1952 13.1237 67.1152 13.1586 67.0863 13.206ZM67.3719 13.7123C67.3719 13.7971 67.4588 13.8665 67.565 13.8665C67.6711 13.8665 67.758 13.8443 67.758 13.817C67.758 13.7898 67.6711 13.7203 67.565 13.6627C67.4192 13.5837 67.3719 13.5958 67.3719 13.7123ZM68.3699 15.5394C68.4458 15.5702 68.5366 15.5664 68.5716 15.531C68.6065 15.4956 68.5444 15.4704 68.4335 15.475C68.3108 15.4801 68.2859 15.5054 68.3699 15.5394ZM44.5992 23.1465C44.5992 23.2051 44.6495 23.2531 44.7107 23.2531C44.772 23.2531 44.7929 23.2051 44.7571 23.1465C44.7213 23.0878 44.6712 23.0398 44.6457 23.0398C44.6201 23.0398 44.5992 23.0878 44.5992 23.1465ZM10.7842 24.2017C10.5682 24.2478 10.213 24.3613 9.99474 24.4538C9.77652 24.5464 9.14439 24.7945 8.59006 25.0053C8.03561 25.2161 7.30748 25.5561 6.97189 25.7609C6.63641 25.9655 6.32713 26.1331 6.28471 26.1331C6.24229 26.1331 6.08218 26.2509 5.92901 26.3947C5.77585 26.5385 5.65048 26.6287 5.65048 26.595C5.65048 26.5613 5.57995 26.5929 5.49373 26.6655C5.40752 26.738 5.36752 26.8472 5.40478 26.9084C5.44194 26.9694 5.42257 26.9881 5.36152 26.95C5.30047 26.9117 4.62391 27.3722 3.85799 27.9734C3.09207 28.5746 2.28794 29.1969 2.07109 29.3563C1.85413 29.5158 1.65065 29.7468 1.61896 29.8697C1.56686 30.0719 1.59317 30.086 1.89529 30.0194C2.31152 29.9274 3.73578 29.4692 4.01884 29.3361C4.13463 29.2816 4.60833 29.1164 5.07151 28.969C5.53468 28.8216 6.17418 28.6089 6.49261 28.4965C7.72634 28.0607 8.15215 27.9486 8.93754 27.8532C9.38482 27.7989 9.91884 27.7928 10.1243 27.8398C10.3297 27.8867 10.5952 27.8993 10.7141 27.8678C10.8747 27.8253 11.0727 27.9526 11.4809 28.3611C11.7835 28.6641 12.0522 28.8986 12.0779 28.8825C12.1034 28.8663 12.1121 28.8736 12.0971 28.8985C12.0821 28.9235 12.1577 29.0435 12.2649 29.1652C12.6049 29.5506 12.8296 31.387 12.6835 32.5864C12.5339 33.8148 12.5271 33.848 12.3286 34.3464C11.8299 35.598 10.9211 36.8902 10.0406 37.5997C9.37051 38.1396 9.17008 38.2468 8.65553 38.3412C8.42658 38.3831 8.0713 38.5025 7.86603 38.6064C7.21706 38.9347 3.33008 39.7992 2.89175 39.7128C2.71048 39.677 2.48068 39.7341 2.26015 39.8696C2.06951 39.9869 1.5896 40.1564 1.19369 40.2462C0.365973 40.434 0.345866 40.4466 0.432396 40.7229C0.493661 40.9183 1.50959 41.3512 1.62728 41.232C1.65465 41.2042 1.80129 41.2466 1.95319 41.326C2.22625 41.469 3.66798 41.7313 4.17674 41.7306C4.32148 41.7305 4.48528 41.7579 4.54075 41.7916C4.7376 41.9114 5.1713 41.9082 5.24562 41.7864C5.30257 41.6931 5.38047 41.6938 5.56468 41.7899C5.85354 41.9406 7.4257 42.0295 7.50486 41.8996C7.53507 41.8501 7.60781 41.8395 7.66655 41.8763C7.8535 41.9935 9.57104 41.9593 10.3349 41.8233C12.4581 41.4453 13.1427 41.2388 13.0535 41.0031C12.9906 40.837 13.1816 40.7944 13.2782 40.9528C13.3131 41.01 13.5625 40.9587 13.8614 40.8328C14.1487 40.7119 14.3585 40.5714 14.3275 40.5208C14.2967 40.4702 14.3449 40.4574 14.4348 40.4922C14.5247 40.5272 14.5982 40.5027 14.5982 40.4377C14.5982 40.3728 14.675 40.3197 14.769 40.3197C14.9883 40.3197 16.1201 39.4959 16.5982 38.9884C16.8009 38.7732 17.0732 38.4961 17.2035 38.3726C17.3338 38.249 17.4404 38.0365 17.4404 37.9005C17.4404 37.7569 17.5036 37.653 17.591 37.653C17.6739 37.653 17.9107 37.3106 18.1173 36.8921C18.4077 36.3039 18.4915 36.0071 18.486 35.5854L18.4789 35.0397L18.345 35.4664C18.1766 36.0031 17.6337 37.0417 17.2298 37.5997C17.06 37.8343 16.9194 38.1132 16.9175 38.2193C16.9155 38.3283 16.8652 38.3817 16.8017 38.342C16.74 38.3033 16.515 38.4498 16.3017 38.6676C15.8866 39.0914 14.7819 39.893 14.6127 39.893C14.5565 39.893 14.4947 39.9335 14.4753 39.9831C14.4284 40.1039 13.8613 40.2405 13.8613 40.1311C13.8613 40.0838 14.1734 39.8632 14.5548 39.6409C15.3259 39.1916 16.914 37.6838 16.914 37.4011C16.914 37.3013 16.9794 37.1942 17.0593 37.1632C17.2654 37.083 17.8199 35.817 18.0857 34.8192C18.5334 33.1396 18.4493 30.1143 17.9006 28.1598C17.7413 27.5926 17.4671 26.9936 17.3129 26.876C17.2717 26.8447 17.1692 26.6527 17.0852 26.4494C17.0012 26.2461 16.8055 25.9598 16.6503 25.8131C16.3263 25.5067 16.1249 25.1731 16.2639 25.1731C16.3157 25.1731 16.5897 25.37 16.8729 25.6107L17.3877 26.0483L16.8245 25.501C16.5147 25.1999 16.0883 24.8798 15.8771 24.7897C14.5887 24.2395 14.3601 24.193 12.756 24.1552C11.8875 24.1347 11.0002 24.1556 10.7842 24.2017ZM81.4953 25.5776C81.3795 25.6024 81.2276 25.6698 81.1578 25.7271C81.0879 25.7845 80.9799 25.7996 80.9177 25.7606C80.8195 25.6992 80.2802 25.7377 77.9688 25.9714C77.7083 25.9978 77.1872 26.0482 76.8109 26.0835C76.4346 26.1189 76.0249 26.1644 75.9006 26.1847C75.7761 26.2051 75.3972 26.2548 75.0584 26.2954C74.7196 26.3359 74.324 26.4466 74.1792 26.5414C74.0345 26.6363 73.8825 26.7039 73.8414 26.6916C73.7172 26.6546 73.2535 27.3378 73.1708 27.6798C73.1282 27.8558 73.0314 28.0967 72.9558 28.2152C72.8801 28.3337 72.787 28.7006 72.7488 29.0305C72.6863 29.5684 72.7007 29.6372 72.888 29.6975C73.1513 29.7821 73.4633 29.6672 73.3729 29.5188C73.3353 29.4571 73.3503 29.4354 73.4062 29.4704C73.462 29.5054 73.789 29.3986 74.1329 29.2332C74.4768 29.0678 74.9714 28.8969 75.2319 28.8535C75.4924 28.8101 75.9898 28.6635 76.3372 28.5279C76.6846 28.3922 77.2199 28.2298 77.5267 28.1671C77.8336 28.1044 78.2177 27.9833 78.3802 27.8982C78.7228 27.7187 79.7725 27.3565 80.2321 27.2593C80.9003 27.1179 81.2122 26.8597 81.5 26.21C81.6527 25.8654 81.7614 25.5721 81.7416 25.558C81.7219 25.5439 81.6111 25.5527 81.4953 25.5776ZM17.465 26.6196C17.5654 26.7406 17.7895 27.1006 17.9631 27.4196C18.3395 28.1114 18.3889 28.0454 18.0307 27.3296C17.8923 27.0529 17.6672 26.7304 17.5307 26.6131L17.2825 26.3998L17.465 26.6196ZM64.021 27.1054C63.6157 27.386 63.142 27.6462 62.9683 27.6835C62.7946 27.7208 62.4729 27.8034 62.2533 27.8671C61.894 27.9714 61.8603 28.0111 61.9155 28.2661C61.9493 28.4219 61.9285 28.6786 61.8692 28.8365C61.7807 29.0724 61.7983 29.1608 61.9678 29.3326C62.0832 29.4496 62.2458 29.5137 62.3371 29.4781C62.5473 29.3964 63.293 29.9184 63.5182 30.3048C63.6134 30.4679 63.7219 30.5822 63.7596 30.5587C63.7972 30.5351 63.8342 30.5737 63.8418 30.6444C63.8495 30.7152 63.9992 31.3011 64.1744 31.9464C64.6106 33.5522 64.6001 33.838 64.086 34.359C63.8612 34.5867 63.5755 34.773 63.4511 34.773C63.3266 34.773 63.2 34.8389 63.1695 34.9193C63.1291 35.0261 62.9811 35.0504 62.6202 35.0095L62.1262 34.9536L62.4541 35.234C62.6942 35.4394 62.948 35.5319 63.4015 35.5795C63.7422 35.6153 64.1954 35.7107 64.4086 35.7917C64.6218 35.8727 65.002 35.9346 65.2534 35.9296C65.5838 35.9229 65.8235 35.9979 66.1174 36.2C66.3411 36.3538 66.6028 36.4797 66.699 36.4797C66.7951 36.4797 66.9381 36.5397 67.0169 36.613C67.0956 36.6864 67.0549 36.568 66.9263 36.3501C66.7978 36.1322 66.6689 35.8202 66.6397 35.6568C66.6105 35.4934 66.4993 35.2637 66.3924 35.1464C66.1 34.8252 65.5756 33.7189 65.4044 33.0619C65.3209 32.7417 65.0782 31.8858 64.8649 31.16C64.5307 30.0229 64.4767 29.6906 64.4747 28.76C64.4731 28.0677 64.5316 27.49 64.6375 27.1515C64.7284 26.8608 64.7927 26.6168 64.7803 26.6092C64.768 26.6015 64.4263 26.8248 64.021 27.1054ZM8.01067 28.7445C7.65865 28.8221 7.15064 28.9614 6.88157 29.0538C6.61262 29.1464 6.03481 29.3171 5.59753 29.4331C5.16035 29.5491 4.74897 29.6776 4.68349 29.7187C4.61802 29.7596 4.29959 29.8532 3.97579 29.9265C3.65209 29.9997 3.1126 30.1362 2.7768 30.2297C2.4411 30.3233 2.07393 30.3997 1.96098 30.3997C1.6676 30.3997 1.70476 30.5212 2.12393 30.933L2.49226 31.2947L3.25555 31.1656C3.98094 31.0429 4.62012 30.959 5.43994 30.8786C6.02438 30.8213 6.93515 30.8203 8.91375 30.8749C10.1196 30.9081 10.8569 30.8853 11.0481 30.8086C11.2908 30.7114 11.3792 30.7256 11.5703 30.8923L11.8004 31.0931L11.6305 30.8194C11.5171 30.6366 11.4705 30.3611 11.4903 29.9906C11.5263 29.3137 11.2897 28.9475 10.7502 28.845C10.5494 28.8068 10.3592 28.733 10.3275 28.681C10.2421 28.5411 8.74722 28.5821 8.01067 28.7445ZM18.5014 28.7553C18.5064 28.8795 18.5314 28.9048 18.5649 28.8198C18.5954 28.7428 18.5916 28.6507 18.5566 28.6153C18.5217 28.5799 18.4968 28.6429 18.5014 28.7553ZM64.8229 29.1819C64.8298 29.4705 64.8735 29.8504 64.9202 30.0264C64.972 30.2217 64.9823 30.0346 64.9467 29.5464C64.8796 28.6277 64.8045 28.4064 64.8229 29.1819ZM65.0864 30.7731C65.124 30.9491 65.1963 31.1651 65.2472 31.2531C65.3064 31.3555 65.3151 31.2979 65.2715 31.0931C65.2339 30.9171 65.1616 30.7011 65.1106 30.6131C65.0514 30.5107 65.0427 30.5683 65.0864 30.7731ZM61.9812 32.162C61.9758 33.0138 61.9434 33.823 61.9094 33.9599C61.8694 34.1216 61.9125 34.2746 62.0323 34.396C62.3171 34.6846 63.2638 34.5755 63.6218 34.2127L63.8932 33.9377L63.7202 33.4021C63.6251 33.1073 63.5473 32.6964 63.5473 32.4888C63.5473 32.0912 63.0251 30.9787 62.7294 30.7464C62.636 30.6731 62.4318 30.6131 62.2755 30.6131H61.9913L61.9812 32.162ZM72.6077 30.8797C72.6077 30.9384 72.6754 31.1064 72.7581 31.2531C72.8409 31.3997 72.9086 31.4717 72.9086 31.4131C72.9086 31.3544 72.8409 31.1864 72.7581 31.0397C72.6754 30.8931 72.6077 30.8211 72.6077 30.8797ZM65.3895 31.8931C65.4315 32.0397 65.5131 32.2077 65.571 32.2664C65.6411 32.3375 65.6508 32.2842 65.6 32.1064C65.558 31.9597 65.4763 31.7917 65.4184 31.7331C65.3483 31.6619 65.3386 31.7153 65.3895 31.8931ZM72.9231 31.7864C72.9229 31.8744 72.9922 32.0396 73.0773 32.1534C73.2739 32.4169 73.2717 32.2437 73.0739 31.8931C72.9867 31.7384 72.9233 31.6936 72.9231 31.7864ZM65.6563 32.5917C65.6584 32.6474 65.7315 32.8131 65.8186 32.9597L65.9772 33.2264L65.9083 32.9597C65.8365 32.6815 65.6496 32.4086 65.6563 32.5917ZM65.9684 33.4156C65.9684 33.51 66.0116 33.6142 66.0644 33.6473C66.1173 33.6804 66.1502 33.6365 66.1377 33.55C66.1046 33.3215 65.9684 33.2135 65.9684 33.4156ZM66.3363 34.133C66.378 34.2797 66.4814 34.4717 66.5661 34.5597C66.7016 34.7004 66.7042 34.6811 66.5875 34.3997C66.4093 33.9701 66.2385 33.7887 66.3363 34.133ZM66.8204 35.1197C66.8877 35.2518 67.002 35.4317 67.0744 35.5197C67.1466 35.6077 67.2685 35.8598 67.3451 36.0797C67.4217 36.2997 67.546 36.4797 67.6212 36.4797C67.8246 36.4797 67.7898 36.3439 67.4678 35.8824C67.3084 35.6536 67.1109 35.3343 67.029 35.173C66.9472 35.0118 66.8392 34.8797 66.7891 34.8797C66.7389 34.8797 66.753 34.9877 66.8204 35.1197ZM61.7577 35.3419C61.7577 35.4202 61.8281 35.4842 61.914 35.4842C62.0323 35.4842 62.0419 35.4496 61.9538 35.3419C61.8896 35.2637 61.8193 35.1997 61.7975 35.1997C61.7756 35.1997 61.7577 35.2637 61.7577 35.3419ZM88.0828 35.6886C88.0878 35.8128 88.1128 35.8381 88.1464 35.7531C88.1768 35.6761 88.173 35.584 88.1381 35.5486C88.1031 35.5132 88.0783 35.5761 88.0828 35.6886ZM87.0814 35.7222C86.9297 35.7823 86.9121 35.8243 87.0125 35.8873C87.0923 35.9372 87.2168 35.9012 87.3176 35.799C87.4982 35.616 87.4161 35.5894 87.0814 35.7222ZM61.7577 35.9763C61.7577 36.0625 61.7305 36.2711 61.6972 36.4397L61.6368 36.7464L62.2344 36.7626C62.563 36.7715 62.8772 36.8246 62.9323 36.8805C62.9906 36.9396 63.2174 36.948 63.4738 36.9005C63.7164 36.8555 63.9388 36.8569 63.9679 36.9035C63.9971 36.9502 64.3289 37.0739 64.7052 37.1785C65.4423 37.3834 66.007 37.6206 67.5075 38.3558C68.0355 38.6146 68.5685 38.8263 68.6918 38.8263C68.8184 38.8263 68.9159 38.8943 68.9159 38.9826C68.9159 39.1775 69.2993 39.3958 69.4623 39.2937C69.5412 39.2444 69.5612 39.2763 69.5198 39.3855C69.4608 39.5414 69.7275 39.893 69.905 39.893C69.9477 39.893 70.1353 40.0489 70.3217 40.2397C70.8151 40.7441 71.4555 41.2135 71.6721 41.2297C71.7756 41.2374 71.9439 41.3153 72.046 41.4027C72.1482 41.4902 72.445 41.627 72.7055 41.7065C72.966 41.7862 73.2266 41.8857 73.2845 41.9278C73.5669 42.1327 75.3442 42.5587 76.1793 42.6216C78.4721 42.7944 79.8127 42.4808 81.4296 41.3936C81.7408 41.1842 82.076 40.9647 82.1747 40.9057C82.2732 40.8466 82.4364 40.7146 82.5373 40.6124C82.6382 40.5102 82.9306 40.3018 83.187 40.1496C83.4435 39.9973 83.6533 39.8283 83.6533 39.774C83.6533 39.7197 83.8644 39.5245 84.1225 39.34C84.3807 39.1557 84.5642 38.9596 84.5305 38.9042C84.496 38.8478 84.4302 38.8672 84.3808 38.9483C84.3322 39.0278 84.2553 39.0964 84.2097 39.1006C84.0592 39.1144 83.548 39.3926 83.548 39.4608C83.548 39.4975 83.465 39.5343 83.3638 39.5424C83.0093 39.5708 81.548 40.4726 81.5479 40.663C81.5479 40.7893 81.494 40.8254 81.3748 40.779C81.2694 40.738 81.1469 40.7876 81.0615 40.9059C80.7644 41.3176 78.5599 41.9153 77.3372 41.9156C76.5368 41.9158 74.7455 41.6469 74.1196 41.4326C73.2024 41.1185 71.8179 40.5119 71.5726 40.3166C71.4358 40.2077 71.2421 40.1514 71.1173 40.1845C70.9594 40.2263 70.9094 40.197 70.9344 40.0768C70.9554 39.9751 70.631 39.6361 70.0921 39.1966C69.6101 38.8033 69.1861 38.4032 69.15 38.3073C69.0802 38.122 69.0622 38.0956 68.6667 37.6023L68.4122 37.2849L68.2781 37.7386C68.1444 38.1907 67.9159 38.2993 67.9159 37.9108C67.9159 37.6538 67.5923 37.4141 66.6355 36.9627C65.7023 36.5225 64.2273 36.0883 63.3894 36.0074C63.042 35.9738 62.5327 35.9179 62.2578 35.883C61.8599 35.8327 61.7577 35.8516 61.7577 35.9763ZM87.4141 36.1597C87.267 36.277 87.1194 36.373 87.0862 36.373C86.9561 36.373 85.3375 37.4817 85.3375 37.5708C85.3375 37.6829 85.3484 37.6767 86.482 36.9132C86.9668 36.5868 87.4531 36.2669 87.5629 36.2023C87.8354 36.0418 87.9204 35.9464 87.7905 35.9464C87.7307 35.9464 87.5614 36.0424 87.4141 36.1597ZM62.3367 36.2664C62.3725 36.325 62.4226 36.373 62.4482 36.373C62.4738 36.373 62.4946 36.325 62.4946 36.2664C62.4946 36.2077 62.4444 36.1597 62.3831 36.1597C62.3219 36.1597 62.3009 36.2077 62.3367 36.2664ZM67.7934 36.7532C67.7587 36.8449 67.7893 37.0489 67.8614 37.2065L67.9926 37.493L68.0853 37.2451C68.1425 37.0923 68.1364 36.9183 68.0695 36.7918C67.9381 36.5427 67.8764 36.5341 67.7934 36.7532ZM18.6597 36.8921C18.6143 36.9664 18.6057 37.056 18.6404 37.0912C18.7346 37.1867 18.8374 37.0463 18.7864 36.8916C18.7508 36.7833 18.726 36.7833 18.6597 36.8921ZM61.8893 37.3131L61.5472 37.3466V38.1965C61.5472 39.2118 61.6021 39.2572 62.454 38.9468C62.7842 38.8264 63.09 38.7503 63.1335 38.7776C63.177 38.8048 63.5721 38.9024 64.0116 38.9946C64.5068 39.0983 65.0384 39.3009 65.4097 39.5275C65.9573 39.8616 66.1833 39.9453 66.4236 39.903C66.4714 39.8946 66.4854 39.9287 66.4548 39.9789C66.4242 40.029 66.72 40.2207 67.1123 40.4049C67.5045 40.589 67.9564 40.8627 68.1165 41.0131C68.2767 41.1635 68.6523 41.4719 68.9513 41.6984C69.2502 41.9251 69.6993 42.3123 69.9492 42.5591C70.4504 43.054 72.2712 43.9821 73.4881 44.363C74.4466 44.663 76.0826 44.847 76.5268 44.7048C76.7121 44.6455 77.2211 44.5241 77.6581 44.4351C78.7409 44.2147 79.6186 43.7876 80.5837 43.0116C80.8929 42.7631 81.195 42.5596 81.2552 42.5596C81.3153 42.5596 81.548 42.3916 81.7724 42.1863C81.9966 41.981 82.2286 41.813 82.2877 41.813C82.3469 41.813 82.4398 41.6944 82.4942 41.5493C82.5486 41.4043 82.7487 41.2185 82.939 41.1364C83.1292 41.0543 83.4033 40.8559 83.548 40.6954C83.6927 40.535 83.9113 40.3645 84.0336 40.3166C84.156 40.2686 84.2825 40.1268 84.3149 40.0016C84.3726 39.7782 84.3671 39.7788 84.0398 40.0297C83.3261 40.5768 81.9776 41.4841 81.5481 41.7062C81.3001 41.8344 81.007 42.0245 80.8966 42.1287C80.6254 42.3847 79.1376 42.8586 78.232 42.9776C77.6448 43.0546 75.2845 43.0606 75.2845 42.985C75.2845 42.975 75.1188 42.9453 74.9161 42.9191C74.7135 42.893 74.3108 42.781 74.0213 42.6703C73.7319 42.5595 73.3055 42.4122 73.0739 42.343C72.8424 42.2738 72.3567 42.0782 71.9946 41.9083C71.6326 41.7385 71.3169 41.5996 71.293 41.5996C71.226 41.5996 70.7168 41.1661 70.2136 40.6806C69.5979 40.0866 67.6008 38.7952 66.8687 38.5175C66.5419 38.3937 66.0991 38.203 65.8846 38.0938C65.6702 37.9845 65.3052 37.8613 65.0737 37.8201C64.8421 37.7787 64.4394 37.6699 64.1789 37.5782C63.6714 37.3998 62.4498 37.2584 61.8893 37.3131ZM18.0187 38.0054C17.5535 38.8099 16.0998 40.1445 14.9227 40.8478C14.0339 41.3787 12.6924 41.8793 11.5981 42.0883C11.4823 42.1104 11.1507 42.1777 10.8612 42.2377C10.5717 42.2978 9.54146 42.3781 8.57163 42.4163C7.5497 42.4564 6.80841 42.529 6.80841 42.589C6.80841 42.6525 6.75767 42.6502 6.67683 42.5829C6.60451 42.5226 6.28471 42.4733 5.96628 42.4736C5.64785 42.4737 5.36362 42.4639 5.33468 42.4517C5.30573 42.4396 5.09256 42.4112 4.86098 42.3887C4.62939 42.366 4.35022 42.3353 4.24074 42.3203C3.94631 42.28 3.9102 42.5411 4.19474 42.6528C4.90656 42.932 7.15432 43.2056 8.80849 43.2142C9.07502 43.2156 10.5454 43.1129 10.5454 43.093C10.5454 43.0826 10.7783 43.0562 11.0631 43.0342C11.3478 43.0122 11.6149 42.9383 11.6566 42.8699C11.6983 42.8016 11.7792 42.775 11.8365 42.8108C11.94 42.8756 12.8323 42.653 13.335 42.437C13.4797 42.3748 13.7402 42.2639 13.9139 42.1906C14.6895 41.8631 15.0388 41.6972 15.1562 41.6008C15.2256 41.5436 15.6485 41.2083 16.0961 40.8554C16.5932 40.4634 16.9355 40.11 16.9759 39.9468C17.0164 39.7839 17.117 39.6797 17.2342 39.6797C17.4285 39.6797 17.5779 39.3956 17.523 39.1308C17.5044 39.0411 17.5683 38.9995 17.6915 39.021C17.8447 39.0478 17.8775 39.0068 17.835 38.8423C17.7943 38.6843 17.821 38.6449 17.9382 38.6904C18.0601 38.7378 18.0798 38.6994 18.0244 38.5224C17.9702 38.3494 17.9963 38.293 18.1304 38.293C18.2766 38.293 18.2849 38.2645 18.1772 38.133C18.0576 37.9869 18.1029 37.9275 18.3088 37.9604C18.4152 37.9774 18.4097 37.786 18.3018 37.7184C18.2545 37.6889 18.1271 37.818 18.0187 38.0054ZM84.8375 37.7892C84.6136 37.8929 84.5088 38.0836 84.6796 38.0763C84.797 38.0713 85.1714 37.7684 85.1193 37.7207C85.0946 37.698 84.9677 37.7289 84.8375 37.7892ZM18.595 38.3249L18.3351 38.8924L18.7739 38.5783C19.1321 38.3219 19.1979 38.2239 19.1322 38.0442C18.9951 37.6684 18.8645 37.7365 18.595 38.3249ZM84.0155 38.3429C83.8612 38.4612 83.8498 38.4995 83.9691 38.4995C84.0559 38.4995 84.219 38.4291 84.3313 38.3429C84.4856 38.2246 84.497 38.1863 84.3777 38.1863C84.2909 38.1863 84.1279 38.2569 84.0155 38.3429ZM83.3839 38.7696C83.2716 38.8558 83.2297 38.9278 83.291 38.9296C83.3523 38.9315 83.4944 38.8625 83.6068 38.7764C83.7192 38.6902 83.7611 38.6182 83.6997 38.6164C83.6384 38.6145 83.4963 38.6835 83.3839 38.7696ZM84.7059 38.726C84.7059 38.788 84.7533 38.8093 84.8112 38.773C84.8691 38.7367 84.9165 38.686 84.9165 38.66C84.9165 38.6341 84.8691 38.613 84.8112 38.613C84.7533 38.613 84.7059 38.6639 84.7059 38.726ZM18.8088 39.1831C18.5483 39.3764 18.0746 39.7133 17.7562 39.9318C17.4377 40.1503 17.1031 40.4589 17.0125 40.6177C16.8165 40.9609 15.0393 42.3628 14.4403 42.6468C13.9962 42.8571 11.7507 43.474 11.1244 43.5576C10.9217 43.5846 10.7559 43.6132 10.7559 43.621C10.7559 43.6411 9.51651 43.7138 8.70322 43.7413C7.6576 43.7767 6.16355 43.6413 5.99007 43.4954C5.9048 43.4236 5.63953 43.3492 5.40057 43.3299C5.16172 43.3105 4.72939 43.2761 4.43991 43.2535C4.15042 43.2308 3.72546 43.1641 3.49545 43.1052C3.26555 43.0462 3.06049 43.0151 3.03996 43.036C3.01944 43.0568 3.2786 43.2602 3.61598 43.4878C4.26653 43.927 5.8788 44.603 6.75578 44.8044C7.04526 44.871 7.42422 44.9888 7.59792 45.0665C8.22046 45.3447 8.77996 45.4296 10.3689 45.4871C11.9147 45.5431 12.0345 45.532 13.2453 45.2223C14.4643 44.9104 15.3419 44.5156 16.0193 43.974C16.8067 43.3446 17.4826 42.8935 17.5631 42.9439C17.6113 42.9741 17.6509 42.898 17.6509 42.7746C17.6509 42.6205 17.7083 42.5601 17.8342 42.5816C17.9423 42.6002 18.0604 42.5146 18.1223 42.373C18.18 42.2409 18.289 42.133 18.3646 42.133C18.5465 42.133 19.7553 40.919 19.7596 40.7321C19.7614 40.6519 19.8294 40.4974 19.9107 40.3888C20.0384 40.218 20.0352 40.142 19.8878 39.8288C19.794 39.6294 19.6758 39.4663 19.6253 39.4663C19.5747 39.4663 19.5619 39.4193 19.597 39.3619C19.6672 39.2468 19.4777 38.8247 19.3578 38.829C19.3164 38.8304 19.0694 38.9897 18.8088 39.1831ZM82.6609 39.2019C82.5493 39.2875 82.4834 39.3831 82.5144 39.4146C82.5454 39.446 82.6841 39.3761 82.8225 39.2592C83.1104 39.0163 82.9686 38.9661 82.6609 39.2019ZM81.9544 39.6761C81.631 39.9491 81.8355 39.9523 82.1795 39.6797C82.3243 39.5649 82.3887 39.47 82.3228 39.4687C82.2568 39.4674 82.091 39.5607 81.9544 39.6761ZM61.7051 39.8298C61.0329 40.1681 60.9032 40.2797 60.5781 40.7997C60.2924 41.2568 58.9068 42.5893 58.2579 43.0309C58.0411 43.1786 57.7332 43.3941 57.5737 43.5099C57.1773 43.7979 55.1978 44.3156 54.5206 44.3083C54.0014 44.3028 53.8034 44.3987 54.0996 44.5123C54.172 44.54 53.9469 44.5575 53.5996 44.5511C53.2522 44.5447 52.2811 44.5525 51.4416 44.5685C50.4396 44.5875 49.6441 44.545 49.1257 44.4446C48.1041 44.247 47.4058 44.2827 46.7784 44.565C46.4544 44.7108 46.1647 44.7702 45.9702 44.7308C45.6589 44.6677 44.9625 44.8862 44.2834 45.2603C43.6362 45.6169 42.422 47.0162 42.0187 47.8703C41.5344 48.8964 41.5322 49.3336 42.0089 49.8018C42.4583 50.2432 42.658 50.1609 43.1192 49.3441C43.61 48.4748 44.6387 47.5518 45.3977 47.2998C46.3375 46.9875 48.2764 47.0087 49.3286 47.3425C50.1252 47.5952 51.0198 48.1072 51.3765 48.5146C51.639 48.8142 51.5524 49.3666 51.0618 50.5252C50.6129 51.5851 50.6404 51.9865 51.1956 52.4805C51.5279 52.7762 51.6175 52.8018 52.272 52.7881C52.6647 52.7799 53.0888 52.829 53.2144 52.8972C53.6489 53.1328 54.7282 53.1597 55.6112 52.9568C56.4043 52.7746 57.6551 52.7199 59.1929 52.8001C59.7422 52.8287 59.9387 52.7841 60.5088 52.5012C61.2355 52.1405 62.1178 51.3584 62.0054 51.1743C61.9671 51.1114 61.9835 51.0899 62.042 51.1264C62.1612 51.2012 62.7019 49.8884 62.8245 49.2263C63.0099 48.225 63.1332 47.7409 63.217 47.6855C63.2661 47.6529 63.3655 47.2903 63.4378 46.8796C63.51 46.4689 63.6353 45.9079 63.7161 45.6329C63.797 45.3579 63.8633 44.9499 63.8635 44.7262C63.8637 44.5026 63.9499 44.1756 64.0551 43.9996C64.1602 43.8236 64.3317 43.4156 64.4362 43.093C64.5405 42.7703 64.7123 42.2903 64.8177 42.0263C64.9233 41.7623 65.0388 41.2306 65.0744 40.8447L65.1391 40.143L64.1064 39.9113C62.4321 39.5359 62.2983 39.5313 61.7051 39.8298ZM16.0719 40.326C16.0719 40.388 16.1193 40.4093 16.1772 40.373C16.2351 40.3367 16.2824 40.286 16.2824 40.26C16.2824 40.2341 16.2351 40.213 16.1772 40.213C16.1193 40.213 16.0719 40.2639 16.0719 40.326ZM1.01873 41.813C1.01873 41.8716 1.0661 41.9196 1.124 41.9196C1.1819 41.9196 1.22927 41.8716 1.22927 41.813C1.22927 41.7543 1.1819 41.7063 1.124 41.7063C1.0661 41.7063 1.01873 41.7543 1.01873 41.813ZM1.56086 41.9143C1.60612 42.0518 1.75044 42.0765 1.7635 41.949C1.76781 41.9064 1.71455 41.8524 1.64507 41.829C1.57559 41.8055 1.5377 41.8439 1.56086 41.9143ZM2.14446 41.9878C2.06582 42.0676 2.15204 42.2396 2.27057 42.2396C2.31541 42.2396 2.35215 42.1676 2.35215 42.0796C2.35215 41.9125 2.2593 41.8714 2.14446 41.9878ZM2.703 42.1849C2.703 42.3381 2.96185 42.4752 3.06112 42.3745C3.17807 42.256 3.12502 42.1581 2.91354 42.102C2.7828 42.0674 2.703 42.0988 2.703 42.1849ZM3.43987 42.3882C3.43987 42.6016 3.72672 42.6834 3.79957 42.4908C3.88947 42.2536 3.88115 42.2396 3.65041 42.2396C3.53461 42.2396 3.43987 42.3065 3.43987 42.3882ZM1.54507 42.5821C1.57402 42.6132 1.81971 42.7368 2.09098 42.8568C2.43005 43.0067 2.56784 43.0314 2.53163 42.936C2.50268 42.8595 2.35173 42.7708 2.19625 42.7391C2.04077 42.7073 1.81876 42.6463 1.70297 42.6035C1.58717 42.5607 1.51612 42.5511 1.54507 42.5821ZM64.3914 45.1463C64.2887 45.396 63.5782 48.3532 63.3088 49.6529C63.1479 50.4285 62.6264 51.943 62.3757 52.3629C62.2123 52.6364 61.4663 53.0521 60.9156 53.1765L60.5472 53.2597L61.0735 53.5029C61.5108 53.7049 62.4298 54.0262 62.863 54.1286C62.9209 54.1423 63.1026 54.2091 63.2669 54.2773C63.431 54.3455 63.7121 54.4129 63.8915 54.4271C64.1927 54.4508 64.2722 54.3753 64.9266 53.442C65.3165 52.8861 65.6129 52.394 65.5853 52.3487C65.5576 52.3033 65.576 52.2662 65.6262 52.2662C65.7888 52.2662 67.8632 48.4351 67.8632 48.135C67.8632 47.9694 64.7404 44.9063 64.5716 44.9063C64.5268 44.9063 64.4457 45.0142 64.3914 45.1463ZM45.5749 47.7749C44.5309 48.273 43.6313 49.6413 43.6104 50.7628L43.5992 51.3596L45.0729 51.4273C45.8835 51.4645 46.6888 51.5223 46.8625 51.5558C47.0362 51.5893 47.4862 51.6663 47.8625 51.7269C48.2388 51.7875 48.7122 51.8856 48.9144 51.9449C49.5643 52.1357 49.735 52.0877 49.9531 51.6529C50.0635 51.433 50.3284 50.929 50.5417 50.5329C50.9734 49.7311 51.0322 49.3163 50.7714 48.9129C50.3855 48.3163 48.5949 47.7052 46.9677 47.6149C46.1693 47.5706 45.9503 47.5957 45.5749 47.7749ZM67.9685 48.3059C67.9685 48.3625 67.9368 48.4926 67.898 48.595C67.8461 48.732 67.8643 48.7582 67.9669 48.694C68.0603 48.6354 68.0811 48.6478 68.0301 48.7315C67.9882 48.8002 67.9176 48.8337 67.8733 48.8059C67.8289 48.7781 67.7096 48.9333 67.6082 49.1508C67.2772 49.86 65.8621 52.3587 65.6962 52.5268C65.6073 52.6169 65.5275 52.7852 65.5188 52.9006C65.5103 53.016 65.4819 53.0887 65.4557 53.0622C65.4296 53.0357 65.2896 53.1938 65.1445 53.4134C64.9995 53.6331 64.7373 53.9809 64.5616 54.1862L64.2424 54.5595L64.5328 54.5939C64.6925 54.6128 64.8866 54.575 64.964 54.5099C65.135 54.366 66.674 52.0463 66.7746 51.7807C66.8237 51.6509 66.8075 51.6156 66.7232 51.6684C66.5375 51.7846 66.5754 51.6725 66.7781 51.5059C66.8992 51.4065 66.9309 51.4023 66.8772 51.4929C66.8337 51.5663 66.8236 51.6262 66.8549 51.6262C66.9646 51.6262 67.327 50.7983 67.2534 50.7156C67.2125 50.6697 67.2289 50.6607 67.2898 50.6958C67.3533 50.7323 67.6291 50.2943 67.9344 49.6722L68.4681 48.5849L68.2183 48.3939C68.0809 48.2889 67.9685 48.2493 67.9685 48.3059ZM55.547 62.4892C55.4023 62.5845 55.2549 62.7035 55.2194 62.7535C55.184 62.8034 55.1214 62.8331 55.0804 62.8193C54.9268 62.7678 53.7689 63.3986 53.8308 63.5C53.8662 63.5582 53.8443 63.5739 53.7821 63.5349C53.7199 63.496 53.2675 63.628 52.7769 63.8285C52.2863 64.0289 51.4771 64.3217 50.9786 64.4791C50.4802 64.6365 50.099 64.809 50.1316 64.8624C50.2167 65.0019 50.6404 64.982 50.7889 64.8315C50.8584 64.7611 50.9153 64.7339 50.9153 64.7711C50.9153 64.8419 52.9168 64.1844 53.1495 64.0371C53.2233 63.9904 53.343 63.943 53.4154 63.9318C53.6431 63.8969 55.9362 62.7514 56.0052 62.6382C56.141 62.4156 55.8182 62.3106 55.547 62.4892ZM35.2024 63.586C35.2739 63.659 35.3588 63.6917 35.3911 63.6589C35.4235 63.626 35.3651 63.5664 35.2613 63.5263C35.1113 63.4685 35.0992 63.4806 35.2024 63.586ZM37.02 64.3195C37.1069 64.3763 37.2253 64.4228 37.2832 64.4228C37.3411 64.4228 37.3174 64.3763 37.2306 64.3195C37.1437 64.2626 37.0253 64.2161 36.9674 64.2161C36.9095 64.2161 36.9332 64.2626 37.02 64.3195ZM38.4938 64.8094C38.928 64.95 39.378 65.0616 39.4938 65.0576C39.6096 65.0535 39.3017 64.9361 38.8096 64.7965C37.6608 64.4707 37.4711 64.4785 38.4938 64.8094Z" fill="white"/>
</svg>
