<svg width="120" height="119" viewBox="0 0 120 119" fill="none" xmlns="http://www.w3.org/2000/svg">
<g opacity="0.8">
<g opacity="0.6">
<path d="M41.8164 62.7813C41.8164 64.623 42.0966 66.4004 42.6157 68.0759L65.3379 45.5431C63.6489 45.027 61.8559 44.7505 59.9987 44.7505C49.9737 44.7492 41.8164 52.8379 41.8164 62.7813Z" fill="white" fill-opacity="0.39"/>
<path d="M78.1823 62.7816C78.1823 59.1845 77.1146 55.829 75.2764 53.0122L50.1484 77.9313C52.9889 79.7529 56.372 80.8137 59.9999 80.8137C70.0256 80.8137 78.1823 72.7243 78.1823 62.7816Z" fill="white" fill-opacity="0.39"/>
<path d="M109.298 29.0654H99.4253L80.2683 48.0628C81.4172 49.615 82.3801 51.2944 83.1428 53.0848C84.454 56.158 85.1171 59.4207 85.1171 62.7815C85.1171 66.1416 84.4527 69.405 83.1428 72.4782C81.8774 75.4449 80.0667 78.1078 77.7611 80.3942C75.4548 82.6812 72.7695 84.4762 69.7779 85.7317C66.6795 87.032 63.39 87.6909 59.9997 87.6909C56.6113 87.6909 53.3205 87.032 50.2215 85.7317C48.4173 84.9741 46.7231 84.0211 45.1573 82.8812L31.4277 96.4976H109.298C113.132 96.4976 116.239 93.4153 116.239 89.6138V35.9493C116.239 32.1471 113.132 29.0654 109.298 29.0654ZM107.003 42.2443C104.766 42.2443 102.952 40.4448 102.952 38.2259C102.952 36.0064 104.766 34.2075 107.003 34.2075C109.241 34.2075 111.055 36.0064 111.055 38.2259C111.054 40.4448 109.241 42.2443 107.003 42.2443Z" fill="white" fill-opacity="0.39"/>
<path d="M10.7024 96.4978H13.9592L37.2659 73.3847C37.1232 73.086 36.9884 72.7848 36.8575 72.4797C35.5462 69.4065 34.8818 66.1431 34.8818 62.783C34.8818 59.4209 35.5462 56.1589 36.8575 53.0863C38.1235 50.1196 39.9336 47.456 42.2398 45.1697C44.5454 42.8833 47.2307 41.0877 50.2224 39.8328C53.3214 38.5325 56.6115 37.8736 60.0006 37.8736C63.3909 37.8736 66.6797 38.5325 69.7787 39.8328C70.0864 39.9613 70.3902 40.0964 70.6926 40.2379L83.5286 27.5089L81.0508 19.959C80.5781 18.5211 79.227 17.5474 77.7011 17.5474H42.3C40.7748 17.5474 39.423 18.5211 38.9503 19.959L35.9613 29.0669H24.5373C24.5681 28.9293 24.5845 28.7871 24.5845 28.6404V24.5773C24.5845 23.4711 23.6804 22.5759 22.5656 22.5759H14.1366C13.0224 22.5759 12.1184 23.4711 12.1184 24.5773V28.6404C12.1184 28.7871 12.1348 28.9293 12.1649 29.0669H10.7024C6.86826 29.0669 3.76074 32.1486 3.76074 35.9508V89.614C3.76074 93.4155 6.86826 96.4978 10.7024 96.4978Z" fill="white" fill-opacity="0.39"/>
<path d="M119.077 0.915333C117.847 -0.305111 115.854 -0.305111 114.623 0.915333L0.923027 113.668C-0.307676 114.888 -0.307676 116.865 0.923027 118.085C2.15373 119.305 4.14707 119.305 5.37712 118.085L119.077 5.3323C120.308 4.11251 120.308 2.13448 119.077 0.915333Z" fill="white" fill-opacity="0.39"/>
</g>
</g>
</svg>
